<?xml version="1.0" encoding="UTF-8" standalone="no"?>
<!-- Created with Inkscape (http://www.inkscape.org/) -->

<svg
   xmlns:dc="http://purl.org/dc/elements/1.1/"
   xmlns:cc="http://creativecommons.org/ns#"
   xmlns:rdf="http://www.w3.org/1999/02/22-rdf-syntax-ns#"
   xmlns:svg="http://www.w3.org/2000/svg"
   xmlns="http://www.w3.org/2000/svg"
   xmlns:sodipodi="http://sodipodi.sourceforge.net/DTD/sodipodi-0.dtd"
   xmlns:inkscape="http://www.inkscape.org/namespaces/inkscape"
   width="960"
   height="540"
   id="svg2"
   version="1.1"
   inkscape:version="0.48.4 r9939"
   sodipodi:docname="s1v1.svg">
  <defs
     id="defs4" />
  <sodipodi:namedview
     id="base"
     pagecolor="#ffffff"
     bordercolor="#666666"
     borderopacity="1.0"
     inkscape:pageopacity="0.0"
     inkscape:pageshadow="2"
     inkscape:zoom="0.98994949"
     inkscape:cx="284.57747"
     inkscape:cy="249.10704"
     inkscape:document-units="px"
     inkscape:current-layer="layer1"
     showgrid="false"
     inkscape:window-width="1366"
     inkscape:window-height="706"
     inkscape:window-x="-8"
     inkscape:window-y="-8"
     inkscape:window-maximized="1"
     inkscape:snap-page="true" />
  <metadata
     id="metadata7">
    <rdf:RDF>
      <cc:Work
         rdf:about="">
        <dc:format>image/svg+xml</dc:format>
        <dc:type
           rdf:resource="http://purl.org/dc/dcmitype/StillImage" />
        <dc:title />
      </cc:Work>
    </rdf:RDF>
  </metadata>
  <g
     inkscape:label="Layer 1"
     inkscape:groupmode="layer"
     id="layer1"
     transform="translate(0,-512.36218)">
    <path
       style="fill:#803300"
       id="path3118"
       d="M -1.1737318,475.61663 C 18.613268,461.66769 964.18425,464.19446 959.89736,471.60458 c 7.26917,32.14167 12.65671,59.89289 11.8987,73.3045 -17.28706,8.32733 -966.3963649,8.41545 -974.7499374,-0.60804 z"
       inkscape:connector-curvature="0"
       transform="translate(0,512.36218)"
       sodipodi:nodetypes="ccccc" />
    <path
       style="fill:#aa4400"
       id="path3118-1"
       d="M -3.7876381,917.60126 C 15.999362,903.65232 961.57037,906.17909 957.28347,913.58921 c 7.2692,32.1417 12.6567,59.8929 11.8987,73.3045 -2.36631,1.13986 -17.57716,-5.95819 -46.46856,-0.0419 -18.76005,3.84162 -44.4567,21.9341 -72.172,21.4946 -20.36587,-0.323 -38.28459,-29.31367 -63.75413,-27.94795 -21.40195,1.14761 -51.38888,33.24655 -75.66243,33.50575 -18.75245,0.2002 -39.31018,-29.76228 -59.57715,-29.24132 -23.69126,0.60897 -51.34663,21.33642 -76.7716,21.75132 -20.31873,0.3317 -37.87534,-24.20475 -58.58298,-24.04897 -19.16301,0.14416 -43.44726,23.44377 -62.63469,23.42017 -21.33141,-0.026 -43.60867,-21.22158 -64.65006,-21.14891 -18.41161,0.0636 -40.67182,20.27611 -58.58862,20.22521 -16.45386,-0.047 -34.66557,-20.27651 -50.50788,-20.2797 -29.66708,-0.006 -55.11273,17.0549 -81.83587,16.8216 -22.58021,-0.1971 -44.91253,-19.55082 -64.63657,-19.66529 -26.39133,-0.15316 -52.922136,22.78149 -72.710924,22.31579 -41.611319,-0.9792 -64.8638888,-16.32894 -66.1964841,-17.76839 z"
       inkscape:connector-curvature="0"
       sodipodi:nodetypes="cccsssssssssssssscc" />
    <path
       style="fill:#d45500;stroke-width:1.20000000000000000;stroke-miterlimit:4;stroke-dasharray:none;stroke:#f3b5ff;stroke-opacity:1"
       id="path3118-1-7"
       d="M 0.25296354,818.30409 C 20.039964,804.35515 966.62115,848.29818 962.33425,855.7083 c 7.2692,32.1417 9.62624,53.83198 8.86824,67.24358 -2.3663,1.13986 -17.5772,-5.95819 -46.46858,-0.0419 -18.76005,3.84162 -44.4567,21.93409 -72.172,21.49459 -20.36587,-0.323 -38.28459,-29.31366 -63.75413,-27.94794 -21.40195,1.14761 -51.38888,33.24654 -75.66243,33.50574 -18.75245,0.2002 -39.31018,-29.76227 -59.57715,-29.24131 -23.69126,0.60897 -89.73243,39.51916 -115.1574,39.93406 -20.31873,0.3317 0.51046,-42.38749 -20.19718,-42.23171 -19.16301,0.14416 -29.30512,47.68742 -48.49255,47.66382 -21.33141,-0.026 -57.75081,-45.46523 -78.7922,-45.39256 -18.41161,0.0636 -40.67182,20.2761 -58.58862,20.2252 -16.45386,-0.047 -52.84832,-6.13435 -68.69063,-6.13755 -29.66708,-0.006 -29.08611,80.16458 -61.63281,-7.42208 -7.86551,-21.16692 -49.9633,-12.47974 -69.68734,-12.59421 -26.39133,-0.15316 -49.89168,25.81194 -69.68047,25.34624 -41.611316,-0.9792 -64.8638856,-16.32893 -66.1964816,-17.76838 z"
       inkscape:connector-curvature="0"
       sodipodi:nodetypes="cccsssssssssssssscc" />
    <path
       style="fill:#55d400;stroke:#000000;stroke-opacity:1;opacity:1;stroke-width:2;stroke-miterlimit:4;stroke-dasharray:none;stroke-linejoin:round;stroke-linecap:square"
       d="m 94.199238,805.63327 c -55.641389,0.20465 -109.035661,2.71967 -107.250001,6.6875 1.130027,5.14678 6.3390633,5.27835 6.0312502,11.75 8.9648063,-0.1118 7.14006031,-5.36942 12.53125,-4.125 7.7942518,7.2021 7.2553718,0.26243 12.1875008,-1.75 15.484197,-6.31793 5.333997,0.19071 9.28125,5.6875 2.15348,2.99886 23.266008,8.69142 22.5,5.65625 -5.978957,-23.69047 13.421249,8.07961 18.15625,-10.5625 1.026106,-4.03988 7.833157,8.9523 12.1875,8.9375 4.976285,-0.0169 1.173875,-9.881 6.21875,-9.875 4.537826,0.005 1.905455,3.25225 6.4375,3.21875 4.897352,-0.0362 4.507112,-2.07915 9.312492,-2.15625 6.013,-0.0964 -4.16548,7.54777 1.4375,7.40625 4.79314,-0.12107 49.77421,-0.67265 60.1875,-6.59375 0.15963,-0.0908 0.31336,-0.14731 0.46875,-0.21875 1.63877,3.90538 5.90409,4.53853 5.625,10.40625 8.96481,-0.1118 7.14006,-5.33817 12.53125,-4.09375 7.79425,7.2021 7.25537,0.23118 12.1875,-1.78125 0.0925,-0.0378 0.15927,-0.0569 0.25,-0.0937 3.33322,0.81401 5.74939,2.86424 8.15625,3.84375 0.13906,0.64968 0.38118,1.29334 0.84375,1.9375 2.15348,2.99886 23.29726,8.72267 22.53125,5.6875 -5.97895,-23.69047 13.42125,8.07961 18.15625,-10.5625 1.0261,-4.03988 7.83316,8.92105 12.1875,8.90625 4.97628,-0.0169 1.14263,-9.881 6.1875,-9.875 4.53783,0.005 1.9367,3.2835 6.46875,3.25 4.89736,-0.0362 4.50712,-2.07915 9.3125,-2.15625 6.013,-0.0964 -4.16548,7.54777 1.4375,7.40625 4.79314,-0.12107 49.77421,-0.67265 60.1875,-6.59375 4.96906,-2.82548 7.81344,3.98545 12.875,3.71875 4.84232,-0.25515 8.83502,-0.0365 12.71875,0.0937 0.62778,1.0981 1.02872,2.45718 0.9375,4.375 4.69909,-0.0586 6.44566,-1.51426 7.8125,-2.71875 3.06957,1.55611 5.41841,3.60731 8.28125,3.03125 6.83281,-1.37492 7.81537,-0.42259 8.375,-0.6875 0.0888,-1.5446 0.64239,-3.40468 0.96875,-5.78125 14.37306,-5.78475 4.68247,0.56559 8.5625,5.96875 2.15348,2.99886 23.26601,8.69142 22.5,5.65625 -5.97896,-23.69047 13.42125,8.07961 18.15625,-10.5625 1.02611,-4.03988 7.83316,8.9523 12.1875,8.9375 4.97629,-0.0169 1.17387,-9.881 6.21875,-9.875 4.53783,0.005 1.90545,3.2835 6.4375,3.25 4.89736,-0.0362 4.50712,-2.1104 9.3125,-2.1875 6.013,-0.0964 -4.16548,7.54777 1.4375,7.40625 3.55935,-0.0899 29.26145,-0.44403 46.53125,-3.03125 1.10485,1.3194 1.94171,2.90838 1.8125,5.625 8.9648,-0.1118 7.14006,-5.33817 12.53125,-4.09375 7.37873,6.81815 7.31528,0.94668 11.46875,-1.40625 0.24275,0.02 0.49685,0.0446 0.75,0.0312 3.13924,-0.16541 5.90943,-0.13888 8.53125,-0.0625 -0.35048,1.54946 -0.60571,3.49936 0.71875,5.34375 2.15348,2.99886 23.26601,8.72267 22.5,5.6875 -0.72294,-2.8645 -1.07337,-4.91419 -1.125,-6.34375 4.33863,-0.80212 6.02291,-0.58972 6.8125,-0.5 3.20547,1.79268 6.90772,3.59388 9.625,1.5 1.86725,2.07984 4.14506,3.57367 3.9375,7.9375 7.7942,-0.0972 7.45936,-4.0657 10.78125,-4.28125 0.0213,0.003 0.0412,-0.002 0.0625,0 0.0858,0.009 0.16595,0.0315 0.25,0.0312 0.0663,-2.3e-4 0.12427,0.004 0.1875,0 0.38175,0.0156 0.79628,0.0443 1.28125,0.15625 7.79425,7.2021 7.25537,0.23118 12.1875,-1.78125 5.7098,-2.32974 7.93096,-2.93336 8.65625,-2.46875 -0.63379,1.16458 -1.02463,2.19591 -0.0625,2.5625 -0.37861,1.58586 -0.74173,3.64697 0.65625,5.59375 2.15348,2.99886 23.26601,8.69142 22.5,5.65625 -5.97895,-23.69047 13.42125,8.11086 18.15625,-10.53125 1.0261,-4.03988 7.83316,8.92105 12.1875,8.90625 4.97628,-0.0169 1.17388,-9.881 6.21875,-9.875 4.53783,0.005 1.9367,3.2835 6.46875,3.25 4.89736,-0.0362 4.50712,-2.07915 9.3125,-2.15625 6.013,-0.0964 -4.19673,7.51652 1.40625,7.375 2.50648,-0.0633 16.01398,-0.24712 29.8125,-1.25 1.77103,3.48372 5.67332,4.32232 5.40625,9.9375 8.9648,-0.1118 7.17131,-5.36942 12.5625,-4.125 7.79425,7.2021 7.22412,0.23118 12.15625,-1.78125 15.48419,-6.31793 5.33399,0.19071 9.28125,5.6875 2.15348,2.99886 23.26601,8.72267 22.5,5.6875 -5.97896,-23.69047 13.42125,8.07961 18.15625,-10.5625 1.02611,-4.03988 7.83316,8.9523 12.1875,8.9375 4.97629,-0.0169 1.17387,-9.881 6.21875,-9.875 4.53783,0.005 1.90545,3.25225 6.4375,3.21875 4.89736,-0.0362 4.50712,-2.07915 9.3125,-2.15625 6.013,-0.0964 -4.16548,7.54777 1.4375,7.40625 4.79314,-0.12107 49.80546,-0.67265 60.21875,-6.59375 4.96906,-2.82548 7.81344,3.98545 12.875,3.71875 6.02354,-0.31739 10.71472,0.0812 15.53125,0.15625 6.55466,0.10213 9.78199,5.51777 14.21875,4.625 6.83281,-1.37492 7.81537,-0.42259 8.375,-0.6875 0.17926,-3.11679 2.21917,-7.4679 0.5,-14.9375 -8.28668,-6.03173 -83.08953,-7.89309 -144.8125,-6.90625 -0.0832,-1.2815 -0.27354,-2.66046 -0.625,-4.1875 -5.24136,-3.81509 -37.15996,-5.95841 -75.5,-6.78125 -0.0769,-0.4245 -0.17849,-0.86602 -0.28125,-1.3125 -9.0915,-6.61754 -98.2783,-8.24307 -162.375,-6.5625 -24.25914,-6.58714 -140.3058,-6.92127 -195.25,-3.5 -17.5479,-6.25467 -113.42623,-7.35582 -174.53125,-5.125 -7.4478,-5.23569 -65.17541,-7.32917 -120.687492,-7.125 z"
       id="path3118-1-7-4"
       inkscape:connector-curvature="0" />
  </g>
</svg>
