<?xml version="1.0" encoding="UTF-8" standalone="no"?>
<!-- Created with Inkscape (http://www.inkscape.org/) -->

<svg
   xmlns:dc="http://purl.org/dc/elements/1.1/"
   xmlns:cc="http://creativecommons.org/ns#"
   xmlns:rdf="http://www.w3.org/1999/02/22-rdf-syntax-ns#"
   xmlns:svg="http://www.w3.org/2000/svg"
   xmlns="http://www.w3.org/2000/svg"
   xmlns:sodipodi="http://sodipodi.sourceforge.net/DTD/sodipodi-0.dtd"
   xmlns:inkscape="http://www.inkscape.org/namespaces/inkscape"
   width="960"
   height="540"
   id="svg2"
   version="1.1"
   inkscape:version="0.48.4 r9939"
   sodipodi:docname="s1v1.svg">
  <defs
     id="defs4">
    <inkscape:perspective
       inkscape:persp3d-origin="522.85714 : 381.42857 : 1"
       inkscape:vp_z="1168.5714 : 561.42857 : 1"
       inkscape:vp_y="0 : 1000 : 0"
       inkscape:vp_x="172.85714 : 581.42857 : 1"
       id="perspective10"
       sodipodi:type="inkscape:persp3d" />
  </defs>
  <sodipodi:namedview
     id="base"
     pagecolor="#ffffff"
     bordercolor="#666666"
     borderopacity="1.0"
     inkscape:pageopacity="0.0"
     inkscape:pageshadow="2"
     inkscape:zoom="1"
     inkscape:cx="269.9168"
     inkscape:cy="181.15418"
     inkscape:document-units="px"
     inkscape:current-layer="layer1"
     showgrid="false"
     inkscape:window-width="1366"
     inkscape:window-height="706"
     inkscape:window-x="-8"
     inkscape:window-y="-8"
     inkscape:window-maximized="1"
     inkscape:snap-page="true"
     showguides="true"
     inkscape:guide-bbox="true" />
  <metadata
     id="metadata7">
    <rdf:RDF>
      <cc:Work
         rdf:about="">
        <dc:format>image/svg+xml</dc:format>
        <dc:type
           rdf:resource="http://purl.org/dc/dcmitype/StillImage" />
        <dc:title />
      </cc:Work>
    </rdf:RDF>
  </metadata>
  <g
     inkscape:label="Layer 1"
     inkscape:groupmode="layer"
     id="layer1"
     transform="translate(0,-512.36218)"
     style="display:inline">
    <path
       style="fill:#803300"
       id="path3118"
       d="M -1.1737318,475.61663 C 18.613268,461.66769 964.18425,464.19446 959.89736,471.60458 c 7.26917,32.14167 12.65671,59.89289 11.8987,73.3045 -17.28706,8.32733 -966.3963649,8.41545 -974.7499374,-0.60804 z"
       inkscape:connector-curvature="0"
       transform="translate(0,512.36218)"
       sodipodi:nodetypes="ccccc" />
    <path
       style="fill:#aa4400"
       id="path3118-1"
       d="M -3.7876381,917.60126 C 15.999362,903.65232 961.57037,906.17909 957.28347,913.58921 c 7.2692,32.1417 12.6567,59.8929 11.8987,73.3045 -2.36631,1.13986 -17.57716,-5.95819 -46.46856,-0.0419 -18.76005,3.84162 -44.4567,21.93409 -72.172,21.49459 -20.36587,-0.323 -38.28459,-29.31366 -63.75413,-27.94794 -21.40195,1.14761 -51.38888,33.24654 -75.66243,33.50574 -18.75245,0.2002 -39.31018,-29.76227 -59.57715,-29.24131 -23.69126,0.60897 -51.34663,21.33641 -76.7716,21.75131 -20.31873,0.3317 -37.87534,-24.20474 -58.58298,-24.04896 -19.16301,0.14416 -43.44726,23.44376 -62.63469,23.42016 -21.33141,-0.026 -43.60867,-21.22157 -64.65006,-21.1489 -18.41161,0.0636 -40.67182,20.2761 -58.58862,20.2252 -16.45386,-0.047 -34.66557,-20.2765 -50.50788,-20.27969 -29.66708,-0.006 -55.11273,17.05489 -81.83587,16.82159 -22.58021,-0.1971 -44.91253,-19.55081 -64.63657,-19.66528 -26.39133,-0.15316 -52.922136,22.78148 -72.710924,22.31578 -41.611319,-0.9792 -64.8638888,-16.32893 -66.1964841,-17.76838 z"
       inkscape:connector-curvature="0"
       sodipodi:nodetypes="cccsssssssssssssscc" />
    <path
       style="fill:#d45500;stroke:none"
       id="path3118-1-7"
       d="M 0.25296354,818.30409 C 20.039964,804.35515 966.62115,848.29818 962.33425,855.7083 c 7.2692,32.1417 9.62624,53.83198 8.86824,67.24358 -2.3663,1.13986 -17.5772,-5.95819 -46.46858,-0.0419 -18.76005,3.84162 -44.4567,21.93409 -72.172,21.49459 -20.36587,-0.323 -38.28459,-29.31366 -63.75413,-27.94794 -21.40195,1.14761 -51.38888,33.24654 -75.66243,33.50574 -18.75245,0.2002 -39.31018,-29.76227 -59.57715,-29.24131 -23.69126,0.60897 -89.73243,39.51916 -115.1574,39.93406 -20.31873,0.3317 0.51046,-42.38749 -20.19718,-42.23171 -19.16301,0.14416 -29.30512,47.68742 -48.49255,47.66382 -21.33141,-0.026 -57.75081,-45.46523 -78.7922,-45.39256 -18.41161,0.0636 -40.67182,20.2761 -58.58862,20.2252 -16.45386,-0.047 -52.84832,-6.13435 -68.69063,-6.13755 -29.66708,-0.006 -29.08611,80.16458 -61.63281,-7.42208 -7.86551,-21.16692 -49.9633,-12.47974 -69.68734,-12.59421 -26.39133,-0.15316 -49.89168,25.81194 -69.68047,25.34624 -41.611316,-0.9792 -64.8638856,-16.32893 -66.1964816,-17.76838 z"
       inkscape:connector-curvature="0"
       sodipodi:nodetypes="cccsssssssssssssscc" />
    <path
       style="fill:#55d400;stroke:none"
       d="m -4.9640381,793.32077 c 0,0 -6.7460849,40.367 -7.0554749,44.63018 9.0107344,-0.0736 7.17664,-3.53709 12.59544944,-2.71733 7.83418276,4.74437 7.29254206,0.17287 12.24993856,-1.15281 15.563525,-4.16193 5.361324,0.12563 9.328799,3.74663 2.164513,1.97549 23.385203,5.72546 22.615271,3.72604 -6.009588,-15.60605 13.490008,5.32243 18.249267,-6.95802 1.031363,-2.66127 7.873287,5.89731 12.249938,5.88756 5.001779,-0.0111 1.179889,-6.50909 6.250609,-6.50514 4.561074,0.003 1.915217,2.14241 6.470481,2.12034 4.922441,-0.0238 4.530202,-1.36963 9.360201,-1.42042 6.043809,-0.0635 -4.186821,4.97208 1.444864,4.87885 4.817695,-0.0797 50.029215,-0.4431 60.495845,-4.34362 0.16045,-0.0598 0.31497,-0.097 0.47116,-0.1441 1.64716,2.57266 5.93433,2.98975 5.65381,6.8551 9.01074,-0.0737 7.17664,-3.51651 12.59545,-2.69675 7.83418,4.74437 7.29254,0.15229 12.24994,-1.1734 0.093,-0.0249 0.16009,-0.0375 0.25128,-0.0617 3.3503,0.53623 5.77885,1.88681 8.19804,2.53206 0.13977,0.42798 0.38313,0.85199 0.84807,1.27633 2.16451,1.97549 23.41661,5.74604 22.64668,3.74663 -6.00958,-15.60606 13.49001,5.32242 18.24927,-6.95803 1.03135,-2.66126 7.87329,5.87672 12.24993,5.86697 5.00178,-0.0111 1.14849,-6.50909 6.2192,-6.50513 4.56108,0.003 1.94663,2.163 6.50189,2.14093 4.92245,-0.0238 4.53021,-1.36964 9.36021,-1.42043 6.04381,-0.0635 -4.18682,4.97208 1.44487,4.87886 4.81769,-0.0798 50.02921,-0.44311 60.49585,-4.34362 4.99451,-1.86128 7.85347,2.6254 12.94096,2.44971 4.86712,-0.16807 8.88028,-0.024 12.78391,0.0617 0.63099,0.72337 1.03399,1.61866 0.9423,2.88202 4.72316,-0.0386 6.47868,-0.99751 7.85252,-1.79097 3.0853,1.02509 5.44617,2.37631 8.32368,1.99683 6.86782,-0.90572 7.85541,-0.27838 8.41791,-0.45289 0.0892,-1.0175 0.64568,-2.24282 0.97371,-3.80839 14.44669,-3.81069 4.70646,0.37259 8.60637,3.93191 2.16451,1.97549 23.3852,5.72545 22.61527,3.72604 -6.00959,-15.60605 13.49001,5.32243 18.24926,-6.95803 1.03137,-2.66126 7.87329,5.89732 12.24994,5.88757 5.00179,-0.0111 1.17989,-6.50909 6.25061,-6.50514 4.56108,0.003 1.91521,2.163 6.47048,2.14093 4.92245,-0.0239 4.53021,-1.39022 9.36021,-1.44101 6.04381,-0.0635 -4.18682,4.97208 1.44486,4.87885 3.57759,-0.0592 29.41136,-0.2925 46.76964,-1.99683 1.11051,0.86915 1.95166,1.91589 1.82179,3.70546 9.01072,-0.0737 7.17664,-3.51651 12.59545,-2.69675 7.41653,4.49144 7.35275,0.62362 11.5275,-0.92637 0.24399,0.0132 0.4994,0.0294 0.75384,0.0206 3.15533,-0.10897 5.93971,-0.0915 8.57496,-0.0412 -0.35228,1.0207 -0.60881,2.30519 0.72243,3.52018 2.16452,1.97549 23.38521,5.74604 22.61527,3.74663 -0.72664,-1.88698 -1.07887,-3.23721 -1.13076,-4.17893 4.36086,-0.5284 6.05377,-0.38848 6.8474,-0.32938 3.22189,1.18093 6.94311,2.36746 9.67431,0.98813 1.87682,1.37009 4.1663,2.35414 3.95767,5.22881 7.83413,-0.064 7.49758,-2.67827 10.83649,-2.82027 0.0214,0.002 0.0414,-0.001 0.0628,0 0.0862,0.006 0.1668,0.0208 0.25128,0.0206 0.0666,-1.6e-4 0.1249,0.003 0.18846,0 0.3837,0.0103 0.80036,0.0292 1.28781,0.10293 7.83418,4.74437 7.29254,0.15228 12.24994,-1.1734 5.73905,-1.53471 7.97159,-1.93234 8.7006,-1.62628 -0.63704,0.76716 -1.02988,1.44655 -0.0628,1.68804 -0.38055,1.04468 -0.74553,2.40243 0.65961,3.68487 2.16451,1.97549 23.3852,5.72546 22.61527,3.72604 -6.00958,-15.60605 13.49001,5.34302 18.24927,-6.93744 1.03135,-2.66126 7.87329,5.87673 12.24994,5.86698 5.00177,-0.0111 1.17989,-6.50909 6.2506,-6.50514 4.56108,0.003 1.94663,2.163 6.50189,2.14093 4.92245,-0.0238 4.53022,-1.36963 9.36021,-1.42042 6.04381,-0.0635 -4.21823,4.95149 1.41346,4.85826 2.51932,-0.0417 16.09602,-0.16279 29.96523,-0.82343 1.78011,2.29489 5.70239,2.84732 5.43395,6.54631 9.01073,-0.0736 7.20805,-3.5371 12.62686,-2.71734 7.83418,4.74437 7.26113,0.15229 12.21853,-1.17339 15.56351,-4.16193 5.36131,0.12563 9.3288,3.74663 2.16451,1.97549 23.3852,5.74604 22.61527,3.74663 -6.0096,-15.60606 13.49,5.32242 18.24926,-6.95803 1.03137,-2.66126 7.87329,5.89731 12.24994,5.88756 5.00178,-0.0111 1.17988,-6.50909 6.25061,-6.50514 4.56108,0.003 1.91521,2.14242 6.47048,2.12035 4.92245,-0.0239 4.53021,-1.36964 9.36021,-1.42043 6.0438,-0.0635 -4.18682,4.97208 1.44486,4.87886 4.8177,-0.0798 50.06062,-0.44311 60.52726,-4.34362 4.99452,-1.86128 7.85347,2.6254 12.94096,2.44972 6.0544,-0.20908 10.76962,0.0535 15.61082,0.10293 6.58824,0.0673 9.83211,3.63482 14.2916,3.04671 6.86781,-0.90573 7.85541,-0.27839 8.4179,-0.45289 0.18018,-2.05318 2.23054,-4.91947 0.50256,-9.84005 -8.32913,-3.97339 -256.12091,-37.14049 -318.16009,-36.49041 -71.39528,-41.01989 -122.38511,-14.86993 -192.57621,-13.38804 -85.6623,1.51051 -323.19354,22.24242 -462.4859581,-9.94405 z"
       id="path3118-1-7-4"
       inkscape:connector-curvature="0"
       sodipodi:nodetypes="cccssssscscscccccccsssscscssscccsccsssscscsccccccsscccccccccsccsssscscscccssssscscsssssccccc" />
    <g
       transform="matrix(0.62212163,0,0,0.6843597,180.34561,419.85005)"
       id="layer1-8"
       inkscape:label="Layer 1">
      <g
         id="g3168">
        <g
           id="g3154"
           transform="matrix(0.59491877,0,0,0.59491877,417.39567,232.65761)">
          <path
             sodipodi:nodetypes="ccccccccccccc"
             id="path3092"
             d="m 319.875,38.03125 c -30.27062,51.770856 -71.39917,100.13928 -128.5,127.375 23.13953,34.35173 35.8551,36.26279 47.78125,40.59375 -28.93025,35.51479 -74.95454,77.67743 -125.98214,97.29911 15.87195,16.57803 25.43994,25.63006 41.23214,38.04464 -41.2854,65.47062 -93.701191,85.05945 -146.5,110.375 174.64895,184.33898 469.62272,143.38579 625.125,2.25 -0.0604,-0.7144 -0.45242,-1.3558 -0.6875,-2.03125 -55.19221,-26.41184 -89.62018,-27.91131 -146.75,-110.59375 8.95962,-7.11421 32.57432,-25.54491 39.19196,-44.61161 C 472.00936,273.10832 421.15231,240.74893 400.8125,206 417.60161,199.83487 431.14188,192.37943 448.59375,165.40625 397.1805,139.3748 358.77709,93.356506 319.875,38.03125 z"
             style="fill:#88aa00;fill-opacity:1;fill-rule:evenodd;stroke:none;stroke-width:10;marker:none;visibility:visible;display:inline;overflow:visible;enable-background:accumulate"
             inkscape:connector-curvature="0" />
          <path
             sodipodi:nodetypes="cccccccccccccccsc"
             id="path3099"
             d="m 56.048193,494.74807 c 161.672537,85.74368 363.758597,62.98946 439.146457,11.3311 -42.6736,-27.32462 -66.11593,-91.8337 -80.18682,-141.33967 -7.70417,15.76274 -170.52417,3.93929 -204.82943,-24.52955 27.05887,-0.55951 170.67758,21.76312 224.66747,-11.13063 -21.21214,-8.17428 -58.35756,-79.69007 -72.82953,-119.65077 -0.34002,-0.98412 -1.63241,-1.7717 -2.9153,-1.77664 -18.16602,-0.97875 -46.09194,0.0935 -75.83468,-24.96912 26.60715,-0.95872 64.10267,5.22106 91.79519,-4.58692 -21.1344,-31.39011 -43.06702,-87.423265 -55.33626,-134.010807 33.11279,49.274563 73.59995,89.626887 123.4168,121.142187 14.54917,8.4026 -38.36509,39.31808 -45.94386,39.3629 25.33532,51.72294 101.2855,84.80346 123.24295,95.41464 -4.45034,15.02432 -17.79575,28.66094 -37.00279,41.00223 38.54463,70.99694 86.85841,82.4552 145.42489,113.07813 -16.02172,29.42214 -86.79851,61.78316 -137.64984,89.30033 C 397.20156,594.25811 128.64,580.09479 56.048193,494.74807 z"
             style="fill:#445500;stroke:none"
             inkscape:connector-curvature="0" />
          <path
             style="fill:none;stroke:none;stroke-width:10;marker:none;visibility:visible;display:inline;overflow:visible;enable-background:accumulate"
             d="m 319.875,38.03125 c -30.27062,51.770856 -71.39917,100.13928 -128.5,127.375 23.13953,34.35173 35.8551,36.26279 47.78125,40.59375 -28.93025,35.51479 -74.95454,77.67743 -125.98214,97.29911 15.87195,16.57803 25.43994,25.63006 41.23214,38.04464 -41.2854,65.47062 -93.701191,85.05945 -146.5,110.375 174.64895,184.33898 469.62272,143.38579 625.125,2.25 -0.0604,-0.7144 -0.45242,-1.3558 -0.6875,-2.03125 -55.19221,-26.41184 -89.62018,-27.91131 -146.75,-110.59375 8.95962,-7.11421 32.57432,-25.54491 39.19196,-44.61161 C 472.00936,273.10832 421.15231,240.74893 400.8125,206 417.60161,199.83487 431.14188,192.37943 448.59375,165.40625 397.1805,139.3748 358.77709,93.356506 319.875,38.03125 z"
             id="path3101"
             sodipodi:nodetypes="ccccccccccccc"
             inkscape:connector-curvature="0" />
        </g>
      </g>
    </g>
  </g>
</svg>
