<?xml version="1.0" encoding="UTF-8" standalone="no"?>
<!-- Created with Inkscape (http://www.inkscape.org/) -->

<svg
   xmlns:dc="http://purl.org/dc/elements/1.1/"
   xmlns:cc="http://creativecommons.org/ns#"
   xmlns:rdf="http://www.w3.org/1999/02/22-rdf-syntax-ns#"
   xmlns:svg="http://www.w3.org/2000/svg"
   xmlns="http://www.w3.org/2000/svg"
   xmlns:xlink="http://www.w3.org/1999/xlink"
   xmlns:sodipodi="http://sodipodi.sourceforge.net/DTD/sodipodi-0.dtd"
   xmlns:inkscape="http://www.inkscape.org/namespaces/inkscape"
   width="960"
   height="540"
   id="svg2"
   version="1.1"
   inkscape:version="0.48.4 r9939"
   sodipodi:docname="s1v2.svg">
  <defs
     id="defs4">
    <linearGradient
       x1="389.23532"
       y1="659.00684"
       x2="401.49106"
       y2="453.95908"
       id="linearGradient2389"
       xlink:href="#linearGradient3191"
       gradientUnits="userSpaceOnUse"
       gradientTransform="matrix(1,0,0,1.0831128,191.61654,239.44305)" />
    <linearGradient
       id="linearGradient3191">
      <stop
         style="stop-color:#553200;stop-opacity:1"
         offset="0"
         id="stop3193" />
      <stop
         style="stop-color:#2e8508;stop-opacity:1"
         offset="0"
         id="stop3417" />
      <stop
         style="stop-color:#3ad001;stop-opacity:1"
         offset="1"
         id="stop3231" />
      <stop
         style="stop-color:#313162;stop-opacity:0"
         offset="1"
         id="stop3195" />
    </linearGradient>
    <linearGradient
       y2="453.95908"
       x2="401.49106"
       y1="659.00684"
       x1="389.23532"
       gradientTransform="matrix(1.2991009,0,0,1.2816174,-6.2955798,180.09386)"
       gradientUnits="userSpaceOnUse"
       id="linearGradient3509"
       xlink:href="#linearGradient3191"
       inkscape:collect="always" />
    <linearGradient
       x1="367.44211"
       y1="454.54004"
       x2="393.70609"
       y2="695.96649"
       id="linearGradient2397"
       xlink:href="#linearGradient3191-1"
       gradientUnits="userSpaceOnUse"
       gradientTransform="matrix(0.9973046,0,0,1.5915493,129.33619,67.73572)" />
    <linearGradient
       id="linearGradient3191-1">
      <stop
         style="stop-color:#553200;stop-opacity:1"
         offset="0"
         id="stop3193-7" />
      <stop
         style="stop-color:#2e8508;stop-opacity:1"
         offset="0"
         id="stop3417-4" />
      <stop
         style="stop-color:#3ad001;stop-opacity:1"
         offset="1"
         id="stop3231-0" />
      <stop
         style="stop-color:#313162;stop-opacity:0"
         offset="1"
         id="stop3195-9" />
    </linearGradient>
    <linearGradient
       x1="-2329.5454"
       y1="1589.9091"
       x2="-2157.5569"
       y2="1589.9091"
       id="linearGradient19658"
       xlink:href="#linearGradient4328"
       gradientUnits="userSpaceOnUse"
       gradientTransform="matrix(0.1750506,0,0,0.4333979,6.1327991,-297.68965)" />
    <linearGradient
       id="linearGradient4328">
      <stop
         id="stop4330"
         style="stop-color:#8f5902;stop-opacity:1"
         offset="0" />
      <stop
         id="stop4332"
         style="stop-color:#724701;stop-opacity:1"
         offset="1" />
    </linearGradient>
    <linearGradient
       x1="1373.2517"
       y1="598.85297"
       x2="1365.1708"
       y2="711.02472"
       id="linearGradient19676"
       xlink:href="#linearGradient19606"
       gradientUnits="userSpaceOnUse"
       gradientTransform="matrix(0.62498929,0,0,0.86803726,-554.63896,136.82443)" />
    <linearGradient
       id="linearGradient19606">
      <stop
         id="stop19608"
         style="stop-color:#4e9a06;stop-opacity:1"
         offset="0" />
      <stop
         id="stop19610"
         style="stop-color:#3f7d04;stop-opacity:1"
         offset="1" />
    </linearGradient>
    <radialGradient
       gradientTransform="translate(0.001,-599.057)"
       id="SVGID_4_"
       cx="420.44339"
       cy="812.12549"
       r="341.98721"
       gradientUnits="userSpaceOnUse">
      <stop
         offset="0"
         style="stop-color:#4FA12B"
         id="stop29" />
      <stop
         offset="1"
         style="stop-color:#2E812B"
         id="stop31" />
    </radialGradient>
    <linearGradient
       gradientTransform="translate(0.001,-599.057)"
       id="SVGID_3_"
       gradientUnits="userSpaceOnUse"
       x1="409.87399"
       y1="897.979"
       x2="409.87399"
       y2="741.90997">
      <stop
         offset="0.1067"
         style="stop-color:#BCDEEC"
         id="stop22" />
      <stop
         offset="1"
         style="stop-color:#FFFFF5"
         id="stop24" />
    </linearGradient>
    <linearGradient
       id="SVGID_2_"
       gradientUnits="userSpaceOnUse"
       x1="409.87399"
       y1="966.65192"
       x2="409.87399"
       y2="607.42133">
      <stop
         offset="0.1067"
         style="stop-color:#BCDEEC"
         id="stop15" />
      <stop
         offset="1"
         style="stop-color:#FFFFF5"
         id="stop17" />
    </linearGradient>
    <linearGradient
       gradientTransform="translate(0.001,-599.057)"
       y2="607.42133"
       x2="409.87399"
       y1="966.65192"
       x1="409.87399"
       gradientUnits="userSpaceOnUse"
       id="linearGradient3209"
       xlink:href="#SVGID_2_"
       inkscape:collect="always" />
  </defs>
  <sodipodi:namedview
     id="base"
     pagecolor="#ffffff"
     bordercolor="#666666"
     borderopacity="1.0"
     inkscape:pageopacity="0.0"
     inkscape:pageshadow="2"
     inkscape:zoom="0.98994949"
     inkscape:cx="406.59667"
     inkscape:cy="231.69624"
     inkscape:document-units="px"
     inkscape:current-layer="layer1"
     showgrid="false"
     inkscape:window-width="1366"
     inkscape:window-height="706"
     inkscape:window-x="-8"
     inkscape:window-y="-8"
     inkscape:window-maximized="1"
     inkscape:snap-page="true" />
  <metadata
     id="metadata7">
    <rdf:RDF>
      <cc:Work
         rdf:about="">
        <dc:format>image/svg+xml</dc:format>
        <dc:type
           rdf:resource="http://purl.org/dc/dcmitype/StillImage" />
        <dc:title />
      </cc:Work>
    </rdf:RDF>
  </metadata>
  <g
     inkscape:label="Layer 1"
     inkscape:groupmode="layer"
     id="layer1"
     transform="translate(0,-512.36218)">
    <path
       style="fill:#00b0a3;fill-opacity:1"
       inkscape:connector-curvature="0"
       d="M -8.3076042,1019.6005 H 963.79783 V 819.30385 c -12.12895,-26.01164 -47.43905,-44.83766 -89.12905,-44.83766 -33.57637,0 -63.01054,12.21451 -79.53543,30.55505 -12.64124,-11.75618 -32.88857,-19.37618 -55.71632,-19.37618 -14.12831,0 -27.2605,2.92487 -38.22019,7.9354 -7.22424,-30.75866 -45.83814,-54.24787 -92.40913,-54.24787 -22.80878,0 -43.70715,5.63974 -59.95102,15.00364 -13.12507,-14.31534 -36.23981,-23.82776 -62.58363,-23.82776 -7.37604,0 -14.49474,0.75537 -21.21618,2.14155 -8.75518,-21.50416 -37.33435,-37.27515 -71.26529,-37.27515 -40.89311,0 -74.04257,22.89832 -74.04257,51.14414 0,1.60417 0.12096,3.18837 0.32967,4.75501 -0.0913,0 -0.18025,-0.005 -0.27156,-0.005 -35.80104,0 -65.66686,17.55083 -72.54958,40.87555 -13.4405,-5.15267 -28.90171,-8.0967 -45.3626,-8.0967 -51.71287,0 -93.63649,28.95807 -93.63649,64.67776 0,1.52592 0.10436,3.03427 0.25496,4.53383 -7.05585,-2.38908 -14.985676,-3.73534 -23.374431,-3.73534 -13.273303,0 -25.399882,3.36724 -34.717164,8.92074 -8.318786,-12.78703 -26.904731,-21.69659 -48.5157984,-21.69659 -3.4876068,0 -6.8922036,0.23875 -10.1936308,0.68191 v 182.17002 z"
       id="path19" />
    <path
       style="fill:#009ab0;fill-opacity:1"
       inkscape:connector-curvature="0"
       d="M -9.3177567,1057.8164 H 962.78768 V 881.75541 c -13.43933,-6.638 -29.07249,-10.46 -45.77173,-10.46 -17.83885,0 -34.45983,4.359 -48.48853,11.857 -4.13152,-31.973 -36.24336,-56.858 -75.25922,-56.858 -16.95658,0 -32.60989,4.702 -45.23216,12.642 -11.13757,-33.259 -47.36433,-57.642 -90.36827,-57.642 -37.3723,0 -69.64185,18.409 -84.76391,45.059 -0.91429,-0.033 -1.82977,-0.059 -2.75237,-0.059 -14.6572,0 -28.15582,4.162 -38.9483,11.148 -13.65278,-27.682 -46.01958,-47.148 -83.78676,-47.148 -38.82616,0 -71.94005,20.575 -84.88605,49.496 -17.38112,-8.576 -37.6071,-13.496 -59.19801,-13.496 -31.49163,0 -60.08621,10.458 -81.16957,27.478 -10.30392,-5.974 -22.77914,-9.478 -36.22913,-9.478 -30.25478,0 -55.59182,17.699 -62.28835,41.485 -3.96432,-0.884 -8.12668,-1.36 -12.42067,-1.36 -9.41689,0 -18.201724,2.272 -25.639422,6.191 -11.747104,-11.806 -29.365389,-19.316 -49.069593,-19.316 -17.97167,0 -34.2048734,6.252 -45.8345776,16.307 v 170.21499 z"
       id="path26" />
    <path
       d="m 284.81768,765.95851 c 23.22653,84.48307 20.84791,-22.65126 33.02086,13.46831 -8.53507,105.90988 6.99594,145.70266 1.67902,257.12238 -13.37517,10.553 -22.02364,11.1 -37.17655,7.5119 -4.18603,-0.9913 -8.24773,-14.2924 -15.00156,-12.8348 25.35579,-95.36718 17.19841,-191.80423 17.47823,-265.26779 z"
       id="path2558"
       style="fill:#ffba2b;fill-opacity:1;stroke:none;display:inline"
       inkscape:connector-curvature="0" />
    <path
       style="fill:#00b011;fill-opacity:1"
       inkscape:connector-curvature="0"
       d="M 963.91305,1057.8164 V 939.81641 c 0,0 -248.27227,-76 -486.61657,-76 -238.34194,0 -486.6154226,76 -486.6154226,76 V 1057.8164 H 963.91305 z"
       id="path33" />
    <path
       d="m 300.60895,596.88659 c -0.67389,-6.05703 8.081,-28.87924 9.09188,-11.8388 2.01743,5.33421 9.48542,17.60213 10.44134,18.75018 -2.02272,-5.11281 -1.19221,-20.19595 1.7877,-6.45589 -1.22782,10.75914 11.6006,12.61265 17.47682,20.94557 3.29632,-8.6998 -0.72037,4.96385 3.58016,5.65036 -1.58679,-8.33229 7.66063,-11.80319 8.92781,-1.86768 -3.45173,8.40704 8.97034,-11.92596 5.95847,1.17697 -2.24781,4.64364 -2.09113,12.41275 1.02268,3.16905 -2.57539,-5.16654 6.67415,8.58056 10.93475,4.22087 -7.20567,10.90306 2.37288,16.77622 12.68414,20.96128 6.79768,5.40834 -3.00756,4.56814 3.81064,2.20976 -1.83435,7.59686 -2.43761,24.51003 10.59757,25.15746 15.84641,3.50022 3.52727,26.83954 -9.5488,23.45015 -3.36139,5.88887 -13.95536,11.95975 -3.84874,19.63166 10.06424,11.82218 21.96466,-4.98391 11.38112,-12.44617 4.91624,11.35906 -1.68018,22.78536 -2.94133,34.16597 5.66024,7.10379 -0.0272,9.51162 -6.79449,7.04164 -4.15101,1.87777 3.23932,5.95013 -2.13026,3.71379 -1.79804,2.84167 -4.43625,-5.29151 -2.78672,3.3826 -2.55308,8.21636 13.38353,4.79918 5.62601,14.85541 -2.80153,11.21891 -16.81873,19.16518 -9.82818,31.80609 -2.60139,3.41745 -3.97598,-6.89758 -1.28909,1.72185 -3.5369,1.50254 2.92657,3.98835 -4.5302,2.8588 -10.607,1.62401 -8.30949,25.9135 -6.0599,23.07642 2.06875,-7.02583 -1.83062,-10.45844 -4.04154,-1.57506 -0.48562,5.89846 -8.68774,8.03523 -9.76434,6.52215 7.74015,9.55423 2.20292,9.61967 -5.58815,4.51478 -5.21062,2.37056 -17.01349,18.65843 -10.01121,5.7438 -1.02341,-4.19407 -5.97742,-12.09405 -4.3131,-2.67595 -0.53419,4.00327 10.95709,14.65088 4.5489,6.83249 -8.50303,-5.04043 -20.74419,-4.8676 -27.64998,-8.05179 2.85234,-6.89039 -8.11875,11.83636 -7.19108,0.27255 -1.62123,-6.35888 5.87771,-21.69971 -0.86569,-8.62939 -5.10583,4.14598 -15.3315,11.11551 -14.15695,-0.18512 -2.25278,-3.11725 -9.22645,-3.33395 -10.60956,-9.56968 -4.70007,10.56452 -6.73989,-17.02871 -4.99563,-2.22678 0.98169,8.68075 -11.01959,9.31853 -13.15849,15.8981 -6.02752,-2.70447 -10.96047,-8.10162 -17.40344,-8.01431 -1.58597,-4.3205 3.1741,-22.27168 -5.54172,-12.4208 -4.23179,4.74728 -3.1838,24.61177 -10.92333,20.1676 -1.20455,-5.03334 3.81824,-23.80398 -6.91123,-15.27303 4.8405,7.75844 -2.55581,-8.4868 1.27662,1.5109 -14.41224,7.79428 -20.16336,-9.86147 -15.33156,-19.71325 -0.58253,-6.43206 4.66041,-13.30929 -3.44774,-10.89554 -0.20839,-6.78694 -4.10357,-9.99113 -9.08846,-14.23668 9.23942,-7.22832 -16.56022,-11.87447 -9.20545,-10.20848 2.45759,-6.03094 2.55603,-18.38507 4.80331,-18.56238 -0.3116,-9.49045 -7.6032,-20.97285 1.43455,-26.08933 -3.94346,-5.8825 2.00709,-24.45145 -0.6104,-23.86154 4.87982,0.18052 7.43651,-16.17528 5.46271,-22.72383 -1.35171,-6.23154 12.43656,-10.29422 4.76932,-2.18645 -1.33793,4.72371 8.40349,-10.24582 12.52589,-12.89943 7.19299,-8.31565 4.30663,6.19365 4.31948,2.28048 2.00581,-10.14954 2.19822,-15.01577 7.93332,-23.43749 2.83313,-8.73593 11.30488,5.0408 7.14967,-2.26301 12.60415,4.62788 19.63084,3.31733 19.11157,3.30825 4.60212,4.05804 5.32626,10.74972 6.89458,6.40962 0.44619,8.72132 -7.82521,-1.00559 -4.79847,-6.43039 -4.85966,-8.81336 2.21293,-26.20849 10.69348,-22.21829 1.60475,11.76938 7.50635,3.09628 4.98832,-4.01678 -2.32012,-11.14631 1.27128,6.58536 4.01508,-4.06284 6.8641,-5.31888 10.62448,-15.51987 8.56361,-24.84846 6.76249,2.56095 6.69968,16.42104 15.36984,9.63892 5.53451,-1.48405 21.28809,6.11763 8.20263,5.66448 -7.74964,-1.1131 -15.36091,-5.00514 -4.19496,-7.60462 1.3866,-0.67846 2.78558,-1.34085 4.23889,-1.8919"
       id="path19665"
       style="fill:#00aa2b;fill-opacity:1;stroke:none;display:inline"
       inkscape:connector-curvature="0" />
  </g>
</svg>
