<?xml version="1.0" encoding="UTF-8" standalone="no"?>
<!-- Created with Inkscape (http://www.inkscape.org/) -->

<svg
   xmlns:i="http://ns.adobe.com/AdobeIllustrator/10.0/"
   xmlns:dc="http://purl.org/dc/elements/1.1/"
   xmlns:cc="http://creativecommons.org/ns#"
   xmlns:rdf="http://www.w3.org/1999/02/22-rdf-syntax-ns#"
   xmlns:svg="http://www.w3.org/2000/svg"
   xmlns="http://www.w3.org/2000/svg"
   xmlns:sodipodi="http://sodipodi.sourceforge.net/DTD/sodipodi-0.dtd"
   xmlns:inkscape="http://www.inkscape.org/namespaces/inkscape"
   width="960"
   height="540"
   id="svg2"
   version="1.1"
   inkscape:version="0.48.4 r9939"
   sodipodi:docname="s1v4.svg">
  <defs
     id="defs4">
    <inkscape:perspective
       inkscape:persp3d-origin="522.85714 : 381.42857 : 1"
       inkscape:vp_z="1168.5714 : 561.42857 : 1"
       inkscape:vp_y="0 : 1000 : 0"
       inkscape:vp_x="172.85714 : 581.42857 : 1"
       id="perspective10"
       sodipodi:type="inkscape:persp3d" />
  </defs>
  <sodipodi:namedview
     id="base"
     pagecolor="#ffffff"
     bordercolor="#666666"
     borderopacity="1.0"
     inkscape:pageopacity="0.0"
     inkscape:pageshadow="2"
     inkscape:zoom="1"
     inkscape:cx="416.80424"
     inkscape:cy="205.54323"
     inkscape:document-units="px"
     inkscape:current-layer="Layer_1"
     showgrid="false"
     inkscape:window-width="1366"
     inkscape:window-height="706"
     inkscape:window-x="-8"
     inkscape:window-y="-8"
     inkscape:window-maximized="1"
     inkscape:snap-page="true"
     showguides="true"
     inkscape:guide-bbox="true" />
  <metadata
     id="metadata7">
    <rdf:RDF>
      <cc:Work
         rdf:about="">
        <dc:format>image/svg+xml</dc:format>
        <dc:type
           rdf:resource="http://purl.org/dc/dcmitype/StillImage" />
        <dc:title></dc:title>
      </cc:Work>
    </rdf:RDF>
  </metadata>
  <g
     inkscape:label="Layer 1"
     inkscape:groupmode="layer"
     id="layer1"
     transform="translate(0,-512.36218)"
     style="display:inline">
    <g
       i:dimmedPercent="50"
       i:layer="yes"
       i:rgbTrio="#4F008000FFFF"
       id="Layer_1"
       transform="translate(49.64699,702.71204)">
      <rect
         style="fill:#ffabe1;fill-opacity:1;stroke:none;stroke-opacity:1"
         id="rect5308"
         width="963"
         height="264"
         x="-49.646992"
         y="88.650139" />
      <g
         id="g3357"
         transform="matrix(2.6433984,0,0,2.5546415,-707.78198,-1199.8958)">
        <g
           id="g3359">
          <path
             inkscape:connector-curvature="0"
             style="fill:#55d400;fill-rule:evenodd;stroke:none"
             d="m 414.86464,450.99042 c 19.18269,2.68399 47.61542,4.71298 37.75631,26.83883 -3.21646,10.51045 -10.62685,34.88682 -20.06923,38.14009 -34.99056,12.05563 -33.68576,71.76808 -149.15186,44.65088 -7.81314,-2.92146 -46.45493,-17.71267 -33.66227,-35.48185 27.81296,-50.80539 54.98691,-29.48277 108.26512,-56.86193 3.69967,-3.3515 8.78976,-10.35768 22.28987,-7.27832 -8.18638,-19.99294 24.52554,-29.43053 34.57206,-10.0077 z"
             id="path3361"
             sodipodi:nodetypes="ccsccccc" />
          <path
             inkscape:connector-curvature="0"
             style="fill:#44aa00;fill-rule:evenodd;stroke:none"
             d="m 284.98737,532.51191 c 11.88886,-13.36942 45.9463,-9.6035 33.94129,21.38202 -2.28679,7.78758 -8.05633,15.11105 -25.29422,24.20442 14.36144,0.0933 17.115,6.53554 20.36875,4.13098 3.81909,-3.92046 6.56428,-14.61146 12.17612,-9.09464 6.33158,6.81548 -10.50448,8.46461 -9.27006,11.61794 0.85436,4.63048 15.40724,-8.2476 18.7515,-0.62388 2.6059,9.68074 -13.89016,4.02211 -14.65632,8.39332 -0.22497,2.85717 15.62758,0.3112 11.45942,8.71913 -3.32342,7.27507 -13.07509,-8.10986 -15.29576,-6.31352 -2.7885,1.84061 6.50195,9.80017 -1.98632,12.58299 -7.80124,1.24922 -0.75607,-13.27523 -3.66203,-13.78783 -13.40299,-3.9581 -29.87405,-1.66727 -47.85013,-16.34488 -8.27543,-4.03474 -0.21338,-11.38421 1.20036,-12.90645 9.25433,-8.52072 14.81139,-25.89805 20.1174,-31.9596 z"
             id="path3363"
             sodipodi:nodetypes="ccccccccccccccc" />
          <path
             transform="translate(-1.5281449,-2.5469081)"
             style="fill:#ffffff;fill-opacity:1;stroke:none"
             d="m 406.48653,456.38568 c 0,5.06383 -4.10505,9.16887 -9.16887,9.16887 -5.06383,0 -9.16887,-4.10504 -9.16887,-9.16887 0,-5.06383 4.10504,-9.16887 9.16887,-9.16887 5.06382,0 9.16887,4.10504 9.16887,9.16887 z"
             id="path3365"
             inkscape:connector-curvature="0" />
          <path
             transform="translate(-1.0417173,-3.4723909)"
             style="fill:#000000;fill-opacity:1;stroke:none"
             d="m 403.83907,459.79868 c 0,2.78073 -2.25423,5.03496 -5.03496,5.03496 -2.78074,0 -5.03497,-2.25423 -5.03497,-5.03496 0,-2.78074 2.25423,-5.03497 5.03497,-5.03497 2.78073,0 5.03496,2.25423 5.03496,5.03497 z"
             id="path3367"
             inkscape:connector-curvature="0" />
          <path
             inkscape:connector-curvature="0"
             style="fill:#44aa00;fill-rule:evenodd;stroke:none"
             d="m 416.77418,520.49692 c -14.84468,-11.45117 10.54449,-41.4816 19.10561,-20.92519 7.06231,24.88632 5.27337,16.55048 13.47054,32.57819 5.17385,10.26954 24.34472,2.62464 35.93674,0.4549 2.80078,0.22153 -0.11612,-12.45278 9.37034,-8.87996 8.488,5.7352 -4.91129,5.91714 -4.36649,11.60933 0.41192,3.30127 13.04187,-5.37839 12.41797,3.86775 -0.73698,5.40376 -12.29556,-0.37022 -13.78266,1.59099 -1.37868,2.5008 12.80804,6.18649 8.64302,11.37239 -6.10361,5.23751 -9.60667,-8.61952 -11.82728,-6.82343 -3.77576,2.44418 4.86694,7.03326 0.45489,10.91749 -3.48595,2.36576 -8.47039,-4.15494 -7.27832,-9.09791 1.88908,-7.83314 -29.8824,9.05956 -36.39164,-0.90979 -11.54871,-18.10766 -8.82148,-13.29519 -25.75272,-25.75476 z"
             id="path3369"
             sodipodi:nodetypes="cccccccccccscc" />
        </g>
        <path
           inkscape:connector-curvature="0"
           sodipodi:nodetypes="cc"
           id="path3371"
           d="m 450.13577,483.01672 c -14.68386,4.8596 -26.40809,3.84924 -33.37871,-1.43051"
           style="fill:none;stroke:#008000;stroke-width:1px;stroke-linecap:butt;stroke-linejoin:miter;stroke-opacity:1" />
      </g>
      <g
         id="g4095"
         transform="matrix(-1.5396958,0,0,1.6320774,1188.8935,-762.30251)">
        <path
           inkscape:connector-curvature="0"
           id="path4097"
           d="m 323.99197,513.13711 c -11.31683,-0.21979 -22.17899,8.16066 -17.0625,20.65625 -13.50011,-3.07936 -18.58157,3.92975 -22.28125,7.28125 -53.27821,27.37916 -80.43705,6.0696 -108.25,56.875 -9.65447,13.41019 9.95593,25.08529 23.53125,31.28125 5.34849,-8.85374 9.39014,-19.02356 13.28125,-23.46875 12.63526,-14.20877 48.82121,-10.21211 36.0625,22.71875 -1.06644,3.63174 -2.85363,7.17012 -6.0625,10.8125 64.5339,7.06659 79.96103,-21.30729 98.625,-39.125 -1.38769,-1.08618 -2.87344,-2.23014 -4.65625,-3.6875 -14.76827,-12.64089 13.12499,-42.39455 20.90625,-20.65625 1.25018,5.44646 2.11945,9.12596 2.875,12.09375 8.60545,-5.39551 15.29706,-27.42771 18.3125,-37.28125 9.85911,-22.12585 -18.56731,-24.15977 -37.75,-26.84375 -3.76745,-7.28356 -10.74115,-10.52438 -17.53125,-10.65625 z"
           style="fill:#55d400;fill-rule:evenodd;stroke:none" />
        <path
           transform="translate(-74.88068,70.25047)"
           d="m 406.48653,456.38568 c 0,5.06383 -4.10505,9.16887 -9.16887,9.16887 -5.06383,0 -9.16887,-4.10504 -9.16887,-9.16887 0,-5.06383 4.10504,-9.16887 9.16887,-9.16887 5.06382,0 9.16887,4.10504 9.16887,9.16887 z"
           sodipodi:ry="9.168869"
           sodipodi:rx="9.168869"
           sodipodi:cy="456.38568"
           sodipodi:cx="397.31766"
           id="path4099"
           style="fill:#ffffff;fill-opacity:1;stroke:none"
           sodipodi:type="arc" />
        <path
           transform="translate(-74.39425,69.324987)"
           d="m 403.83907,459.79868 c 0,2.78073 -2.25423,5.03496 -5.03496,5.03496 -2.78074,0 -5.03497,-2.25423 -5.03497,-5.03496 0,-2.78074 2.25423,-5.03497 5.03497,-5.03497 2.78073,0 5.03496,2.25423 5.03496,5.03497 z"
           sodipodi:ry="5.0349669"
           sodipodi:rx="5.0349669"
           sodipodi:cy="459.79868"
           sodipodi:cx="398.80411"
           id="path4101"
           style="fill:#000000;fill-opacity:1;stroke:none"
           sodipodi:type="arc" />
        <path
           inkscape:connector-curvature="0"
           sodipodi:nodetypes="cc"
           id="path4103"
           d="m 376.78324,555.8141 c -14.68386,4.8596 -26.40809,3.84924 -33.37871,-1.43051"
           style="fill:none;stroke:#008000;stroke-width:1px;stroke-linecap:butt;stroke-linejoin:miter;stroke-opacity:1" />
        <path
           inkscape:connector-curvature="0"
           sodipodi:nodetypes="ccccccccccccccc"
           id="path4105"
           d="m 214.01903,606.73981 c 11.88886,-13.36942 45.9463,-9.6035 33.94129,21.38202 -2.28679,7.78758 -8.05633,15.11105 -25.29422,24.20442 14.36144,0.0933 17.115,6.53554 20.36875,4.13098 3.81909,-3.92046 6.56428,-14.61146 12.17612,-9.09464 6.33158,6.81548 -10.50448,8.46461 -9.27006,11.61794 0.85436,4.63048 15.40724,-8.2476 18.7515,-0.62388 2.6059,9.68074 -13.89016,4.02211 -14.65632,8.39332 -0.22497,2.85717 15.62758,0.3112 11.45942,8.71913 -3.32342,7.27507 -13.07509,-8.10986 -15.29576,-6.31352 -2.7885,1.84061 6.50195,9.80017 -1.98632,12.58299 -7.80124,1.24922 -0.75607,-13.27523 -3.66203,-13.78783 -13.40299,-3.9581 -29.87405,-1.66727 -47.85013,-16.34488 -8.27543,-4.03474 -0.21338,-11.38421 1.20036,-12.90645 9.25433,-8.52072 14.81139,-25.89805 20.1174,-31.9596 z"
           style="fill:#55d400;fill-opacity:1;fill-rule:evenodd;stroke:none" />
        <path
           inkscape:connector-curvature="0"
           sodipodi:nodetypes="cccccccccccscc"
           id="path4107"
           d="m 338.2359,595.49965 c -13.29915,-11.53475 12.12,-38.3188 19.03803,-18.58691 5.27968,23.71022 4.05177,15.79939 10.87263,31.26625 3.41223,7.98916 13.53893,7.60576 24.52278,6.19633 11.31294,0.21114 -0.17511,-9.76334 6.16634,-11.80067 6.7634,-1.24358 2.44936,7.78897 5.3074,10.353 2.71485,1.78996 9.86189,-7.14073 10.69561,0.46134 0.0501,5.32094 -9.4423,2.08681 -10.05738,5.02477 -1.42718,2.2701 12.70569,4.27796 8.52177,8.91507 -5.41426,5.02337 -9.57347,-6.38631 -11.75195,-4.82221 -3.67129,2.08786 4.18355,6.85557 -0.16181,10.25911 -3.39538,2.02997 -7.7167,-4.35144 -6.33287,-8.92099 2.19298,-7.2414 -28.50139,6.88279 -34.06633,-2.8137 -9.8507,-17.5973 -7.55336,-12.93889 -22.75422,-25.53139 z"
           style="fill:#55d400;fill-opacity:1;fill-rule:evenodd;stroke:none" />
        <path
           inkscape:connector-curvature="0"
           sodipodi:nodetypes="ccc"
           id="path4109"
           d="m 199.042,586.29109 c 3.2337,-8.72173 19.49689,1.51855 16.53961,10.46749 -6.32644,-2.05388 -16.42475,2.54925 -16.53961,-10.46749 z"
           style="fill:#66ff00;fill-opacity:1;fill-rule:evenodd;stroke:none" />
        <path
           inkscape:connector-curvature="0"
           sodipodi:nodetypes="ccc"
           id="path4111"
           d="m 183.72412,611.87909 c -2.99059,-6.35601 7.03136,-15.36467 11.58948,-9.14846 4.04057,8.23796 -6.19546,14.65292 -11.58948,9.14846 z"
           style="fill:#66ff00;fill-opacity:1;fill-rule:evenodd;stroke:none" />
        <path
           inkscape:connector-curvature="0"
           sodipodi:nodetypes="ccc"
           id="path4113"
           d="m 250.57554,600.33156 c -2.99059,-6.35601 7.03136,-15.36467 11.58948,-9.14846 4.04057,8.23796 -6.19546,14.65292 -11.58948,9.14846 z"
           style="fill:#66ff00;fill-opacity:1;fill-rule:evenodd;stroke:none" />
        <path
           inkscape:connector-curvature="0"
           inkscape:transform-center-y="0.26239221"
           inkscape:transform-center-x="-2.2399326"
           sodipodi:nodetypes="ccc"
           id="path4115"
           d="m 226.03606,588.15217 c -5.13743,-7.75449 12.72282,-14.85142 18.20675,-7.1862 -5.38923,3.89854 -7.62594,14.76876 -18.20675,7.1862 z"
           style="fill:#66ff00;fill-opacity:1;fill-rule:evenodd;stroke:none" />
        <path
           inkscape:connector-curvature="0"
           inkscape:transform-center-y="-0.72095534"
           inkscape:transform-center-x="-1.9804148"
           sodipodi:nodetypes="ccc"
           id="path4117"
           d="m 237.65955,564.67411 c -0.29517,9.29722 18.62938,5.9482 19.26626,-3.45518 -6.63384,-0.48429 -14.24975,-8.55661 -19.26626,3.45518 z"
           style="fill:#66ff00;fill-opacity:1;fill-rule:evenodd;stroke:none" />
        <path
           inkscape:connector-curvature="0"
           sodipodi:nodetypes="ccc"
           id="path4119"
           d="m 321.02378,607.91849 c -2.99059,-6.35601 7.03136,-15.36467 11.58948,-9.14846 4.04057,8.23796 -6.19546,14.65292 -11.58948,9.14846 z"
           style="fill:#66ff00;fill-opacity:1;fill-rule:evenodd;stroke:none" />
        <path
           inkscape:connector-curvature="0"
           sodipodi:nodetypes="ccc"
           id="path4121"
           d="m 277.86727,617.38477 c -8.79136,-0.0828 -3.66372,-9.36125 0.42458,-14.54717 8.17595,-11.06453 7.14863,13.95635 -0.42458,14.54717 z"
           style="fill:#66ff00;fill-opacity:1;fill-rule:evenodd;stroke:none" />
        <path
           inkscape:connector-curvature="0"
           inkscape:transform-center-y="-1.5466073"
           inkscape:transform-center-x="-0.82014679"
           sodipodi:nodetypes="ccc"
           id="path4123"
           d="m 290.03702,628.89352 c 5.07277,7.79695 18.6855,-5.76948 13.83241,-13.84888 -5.7198,3.39502 -16.58323,1.12562 -13.83241,13.84888 z"
           style="fill:#66ff00;fill-opacity:1;fill-rule:evenodd;stroke:none" />
        <path
           inkscape:connector-curvature="0"
           sodipodi:nodetypes="ccc"
           id="path4125"
           d="m 206.38423,574.22497 c -5.70945,-6.68558 4.65572,-8.90955 11.25155,-9.23056 13.71371,-1.09729 -5.83376,14.55506 -11.25155,9.23056 z"
           style="fill:#66ff00;fill-opacity:1;fill-rule:evenodd;stroke:none" />
        <path
           inkscape:connector-curvature="0"
           inkscape:transform-center-y="-1.3349922"
           inkscape:transform-center-x="-0.75742509"
           sodipodi:nodetypes="ccc"
           id="path4127"
           d="m 278.00817,584.89516 c -8.82218,-2.94864 0.88433,-19.53594 9.92463,-16.87095 -1.84727,6.38983 3.08151,16.33326 -9.92463,16.87095 z"
           style="fill:#66ff00;fill-opacity:1;fill-rule:evenodd;stroke:none" />
        <path
           inkscape:connector-curvature="0"
           inkscape:transform-center-y="0.26239221"
           inkscape:transform-center-x="-2.2399326"
           sodipodi:nodetypes="ccc"
           id="path4129"
           d="m 288.91774,547.68664 c -5.13743,-7.75449 12.72282,-14.85142 18.20675,-7.1862 -5.38923,3.89854 -7.62594,14.76876 -18.20675,7.1862 z"
           style="fill:#66ff00;fill-opacity:1;fill-rule:evenodd;stroke:none" />
        <path
           inkscape:connector-curvature="0"
           inkscape:transform-center-y="-1.2816835"
           inkscape:transform-center-x="-1.0557613"
           sodipodi:nodetypes="ccc"
           id="path4131"
           d="m 303.94575,578.90659 c 4.30427,8.24613 19.15142,-3.957 15.09282,-12.46329 -6.01813,2.83275 -16.6149,-0.46465 -15.09282,12.46329 z"
           style="fill:#66ff00;fill-opacity:1;fill-rule:evenodd;stroke:none" />
        <path
           inkscape:connector-curvature="0"
           sodipodi:nodetypes="ccc"
           id="path4133"
           d="m 303.20722,562.81525 c -2.01941,-4.29193 4.74797,-10.37508 7.82586,-6.17755 2.72842,5.56273 -4.18351,9.89447 -7.82586,6.17755 z"
           style="fill:#66ff00;fill-opacity:1;fill-rule:evenodd;stroke:none" />
        <path
           inkscape:connector-curvature="0"
           sodipodi:nodetypes="ccc"
           id="path4135"
           d="m 220.23826,614.85676 c -2.99059,-6.35601 7.03136,-15.36467 11.58948,-9.14846 4.04057,8.23796 -6.19546,14.65292 -11.58948,9.14846 z"
           style="fill:#66ff00;fill-opacity:1;fill-rule:evenodd;stroke:none" />
        <path
           inkscape:connector-curvature="0"
           sodipodi:nodetypes="ccc"
           id="path4137"
           d="m 276.31774,559.25092 c -12.87048,-4.60979 -5.28454,-9.14924 0.33582,-11.36407 8.72537,-1.97617 2.9192,13.44614 -0.33582,11.36407 z"
           style="fill:#66ff00;fill-opacity:1;fill-rule:evenodd;stroke:none" />
        <path
           inkscape:connector-curvature="0"
           inkscape:transform-center-y="-2.0884372"
           inkscape:transform-center-x="-0.75069225"
           sodipodi:nodetypes="ccc"
           id="path4139"
           d="m 208.50237,642.84551 c -7.99419,-0.82949 -2.92407,-16.64193 5.20075,-16.09264 -0.35755,5.73593 5.66708,13.19594 -5.20075,16.09264 z"
           style="fill:#66ff00;fill-opacity:1;fill-rule:evenodd;stroke:none" />
        <path
           inkscape:connector-curvature="0"
           sodipodi:nodetypes="ccc"
           id="path4141"
           d="m 221.58366,661.20339 c -4.13248,2.32835 -10.69498,-3.97527 -6.73418,-7.35235 5.34794,-3.12855 10.17433,3.44752 6.73418,7.35235 z"
           style="fill:#66ff00;fill-opacity:1;fill-rule:evenodd;stroke:none" />
        <path
           inkscape:connector-curvature="0"
           sodipodi:nodetypes="ccc"
           id="path4143"
           d="m 237.32413,630.14079 c -6.23962,14.1952 -10.77208,5.25114 -12.83086,-1.28409 -1.54167,-10.0293 15.44553,-2.23305 12.83086,1.28409 z"
           style="fill:#66ff00;fill-opacity:1;fill-rule:evenodd;stroke:none" />
        <path
           inkscape:connector-curvature="0"
           inkscape:transform-center-y="0.56656618"
           inkscape:transform-center-x="-1.9189036"
           sodipodi:nodetypes="ccc"
           id="path4145"
           d="m 341.55129,580.49747 c -0.66983,-6.24535 12.24275,-4.94914 13.14804,1.35036 -4.44237,0.66223 -9.16155,6.48363 -13.14804,-1.35036 z"
           style="fill:#66ff00;fill-opacity:1;fill-rule:evenodd;stroke:none" />
        <path
           inkscape:connector-curvature="0"
           sodipodi:nodetypes="ccc"
           id="path4147"
           d="m 351.81313,600.31765 c -4.13248,2.32835 -10.69498,-3.97527 -6.73418,-7.35235 5.34794,-3.12855 10.17433,3.44752 6.73418,7.35235 z"
           style="fill:#66ff00;fill-opacity:1;fill-rule:evenodd;stroke:none" />
        <path
           inkscape:connector-curvature="0"
           sodipodi:nodetypes="ccc"
           id="path4149"
           d="m 265.26403,636.75585 c -15.00033,2.82277 -10.25431,-5.83149 -6.08993,-11.13707 7.29028,-6.82798 10.40068,11.30582 6.08993,11.13707 z"
           style="fill:#66ff00;fill-opacity:1;fill-rule:evenodd;stroke:none" />
        <path
           inkscape:connector-curvature="0"
           sodipodi:nodetypes="ccc"
           id="path4151"
           d="m 307.76265,606.03426 c -14.2771,-5.39836 -5.71979,-10.31703 0.59773,-12.67929 9.77899,-2.03491 2.99506,15.06736 -0.59773,12.67929 z"
           style="fill:#66ff00;fill-opacity:1;fill-rule:evenodd;stroke:none" />
        <path
           inkscape:connector-curvature="0"
           sodipodi:nodetypes="ccc"
           id="path4155"
           d="m 355.1719,607.52387 c 1.0626,-6.72653 7.58898,-1.74319 11.09779,1.97867 7.54841,7.52194 -11.50584,3.89107 -11.09779,-1.97867 z"
           style="fill:#66ff00;fill-opacity:1;fill-rule:evenodd;stroke:none" />
      </g>
    </g>
  </g>
</svg>
