<?xml version="1.0" encoding="UTF-8" standalone="no"?>
<!-- Created with Inkscape (http://www.inkscape.org/) -->

<svg
   xmlns:i="http://ns.adobe.com/AdobeIllustrator/10.0/"
   xmlns:dc="http://purl.org/dc/elements/1.1/"
   xmlns:cc="http://creativecommons.org/ns#"
   xmlns:rdf="http://www.w3.org/1999/02/22-rdf-syntax-ns#"
   xmlns:svg="http://www.w3.org/2000/svg"
   xmlns="http://www.w3.org/2000/svg"
   xmlns:sodipodi="http://sodipodi.sourceforge.net/DTD/sodipodi-0.dtd"
   xmlns:inkscape="http://www.inkscape.org/namespaces/inkscape"
   width="960"
   height="540"
   id="svg2"
   version="1.1"
   inkscape:version="0.48.4 r9939"
   sodipodi:docname="s1v4.svg">
  <defs
     id="defs4">
    <inkscape:perspective
       inkscape:persp3d-origin="522.85714 : 381.42857 : 1"
       inkscape:vp_z="1168.5714 : 561.42857 : 1"
       inkscape:vp_y="0 : 1000 : 0"
       inkscape:vp_x="172.85714 : 581.42857 : 1"
       id="perspective10"
       sodipodi:type="inkscape:persp3d" />
  </defs>
  <sodipodi:namedview
     id="base"
     pagecolor="#ffffff"
     bordercolor="#666666"
     borderopacity="1.0"
     inkscape:pageopacity="0.0"
     inkscape:pageshadow="2"
     inkscape:zoom="1"
     inkscape:cx="372.39641"
     inkscape:cy="198.57493"
     inkscape:document-units="px"
     inkscape:current-layer="Layer_1"
     showgrid="false"
     inkscape:window-width="1366"
     inkscape:window-height="706"
     inkscape:window-x="-8"
     inkscape:window-y="-8"
     inkscape:window-maximized="1"
     inkscape:snap-page="true"
     showguides="true"
     inkscape:guide-bbox="true" />
  <metadata
     id="metadata7">
    <rdf:RDF>
      <cc:Work
         rdf:about="">
        <dc:format>image/svg+xml</dc:format>
        <dc:type
           rdf:resource="http://purl.org/dc/dcmitype/StillImage" />
        <dc:title />
      </cc:Work>
    </rdf:RDF>
  </metadata>
  <g
     inkscape:label="Layer 1"
     inkscape:groupmode="layer"
     id="layer1"
     transform="translate(0,-512.36218)"
     style="display:inline">
    <g
       i:dimmedPercent="50"
       i:layer="yes"
       i:rgbTrio="#4F008000FFFF"
       id="Layer_1"
       transform="translate(49.64699,702.71204)">
      <path
         style="fill:#ffa555;fill-opacity:1;stroke:none"
         id="path6780"
         d="m 0,235.63777 c 2.370942,-0.29743 957.67826,6.22732 960,5.66433 L 960,540 c -2.61186,0.48947 -957.7401569,-0.14338 -960,0 z"
         inkscape:connector-curvature="0"
         transform="translate(-49.64699,-190.34986)"
         sodipodi:nodetypes="ccccc" />
      <g
         id="g5346"
         transform="matrix(4.4474475,0,0,3.662118,-170.81385,-150.23395)">
        <path
           inkscape:connector-curvature="0"
           style="fill:#f9cd98;fill-opacity:1;fill-rule:evenodd;stroke:none"
           d="m 25.628157,136.41608 c 9.674845,-8.32429 1.367804,-16.10823 7.926685,-29.65722 2.766934,-4.28818 4.813138,-8.178072 9.480264,-14.217569 -3.186664,-10.999785 2.034597,-20.842318 10.324932,-25.461782 -2.098344,-3.1203 -7.487858,-14.698685 1.468488,-27.498233 0.689199,4.974818 5.390324,12.44869 6.112249,10.644099 1.443849,-3.60918 1.851764,-2.996473 6.73877,-4.750242 10.652585,-1.98653 25.217094,0.745265 32.202901,9.97324 1.522384,1.731163 6.087064,-4.726287 9.799134,-5.818254 -0.42149,6.348464 -3.34901,11.448692 -1.93015,13.147194 2.83771,3.397006 6.52663,9.721409 6.36251,14.972742 2.38755,2.483977 2.48595,7.703606 -0.76522,10.177296 1.70912,5.78055 1.72211,12.122019 2.28541,16.849679 -0.20223,12.35207 -17.833528,15.19073 -26.709417,12.91785 -2.483325,2.82792 -4.710934,9.96702 -7.393807,16.65 -1.111133,5.16335 -4.570609,27.42248 -13.752405,33.73337 -1.904074,-0.56477 -4.618693,-2.2231 -5.930448,-4.45522 -1.725113,-0.5787 -2.874079,1.57568 -4.126991,3.67604 -3.433167,-10.05918 -21.479993,-24.36913 -32.092905,-30.88299 z"
           id="path909"
           sodipodi:nodetypes="ccccccccccccccccccc" />
        <path
           inkscape:connector-curvature="0"
           style="fill:#000000;fill-opacity:0.09411765;fill-rule:evenodd;stroke:none"
           d="m 62.450407,84.897506 c 0,0 12.490082,-14.354273 18.641913,-16.777721 6.151831,-2.423449 -14.540692,-8.016023 -21.624619,-9.320957 -7.083926,-1.304934 -3.169125,25.353002 2.982706,26.098678 z"
           id="path928" />
        <path
           inkscape:connector-curvature="0"
           style="fill:#000000;fill-opacity:0.37647059;fill-rule:evenodd;stroke:none"
           d="m 57.434917,68.663541 c 0,0 -0.538452,-1.974325 1.076905,-2.602519 1.794842,-1.346131 6.730655,1.256389 7.717817,3.589682 0.358969,1.884582 10e-7,2.064068 -1.435872,2.692262 -0.08974,1.166646 1.256389,2.961488 -0.44871,2.871746 -3.948651,1.974325 -8.794722,-2.512778 -8.25627,-4.756329 0.08974,-1.7051 1.346131,-0.807679 1.34613,-1.794842 z"
           id="path3473"
           sodipodi:nodetypes="ccccccc" />
        <path
           inkscape:connector-curvature="0"
           style="fill:#000000;fill-opacity:1;fill-rule:evenodd;stroke:none"
           d="m 57.251544,68.884814 c -1.017806,3.81677 6.376281,7.701572 8.142441,2.544513 -0.17142,-3.562318 -6.870185,-6.39396 -8.142441,-2.544513 z"
           id="path915"
           sodipodi:nodetypes="ccc" />
        <path
           inkscape:connector-curvature="0"
           style="fill:#000000;fill-opacity:0.50196078;fill-rule:evenodd;stroke:none"
           d="m 54.596433,40.56917 c -0.368972,2.951778 -3.303321,16.437075 0.0045,15.419269 3.307867,-1.017805 4.970449,-2.256182 5.907612,-4.915216 -1.891624,-1.552117 -4.232637,-6.835684 -5.912158,-10.504053 z"
           id="path916"
           sodipodi:nodetypes="cccc" />
        <path
           inkscape:connector-curvature="0"
           style="fill:#000000;fill-opacity:0.50196078;fill-rule:evenodd;stroke:none"
           d="m 102.27578,57.335679 c 1.72187,-1.72187 5.82368,-6.071707 6.84148,-6.83506 0.40285,3.418331 -2.46412,10.582826 -2.20967,12.109534 -1.45888,-1.721381 -4.12291,-4.256669 -4.63181,-5.274474 z"
           id="path917"
           sodipodi:nodetypes="cccc" />
        <path
           inkscape:connector-curvature="0"
           style="fill:#000000;fill-opacity:0.25098039;fill-rule:evenodd;stroke:none"
           d="m 79.643258,103.23574 c 0,0 19.468038,10.58719 24.557062,8.55158 1.8759,-3.18316 0.63362,-21.783047 1.14252,-24.073109 0.5089,-2.290062 -24.681777,-2.544513 -25.699582,15.521529 z"
           id="path918"
           sodipodi:nodetypes="cccc" />
        <path
           inkscape:connector-curvature="0"
           style="fill:#000000;fill-opacity:0.25098039;fill-rule:evenodd;stroke:none"
           d="m 80.531325,104.4032 c 0,0 26.083775,10.5373 29.646095,8.24724 4.07122,1.27225 -28.299012,15.09248 -29.646095,-8.24724 z"
           id="path919"
           sodipodi:nodetypes="ccc" />
        <path
           inkscape:connector-curvature="0"
           style="fill:#000000;fill-opacity:0.25098039;fill-rule:evenodd;stroke:none"
           d="m 105.51744,87.764095 c 0,0 1.35211,19.592745 -0.1746,22.391715 -1.52671,2.79896 2.54451,3.51243 5.34348,2.24018 7.15963,-0.35422 3.30786,-21.373912 2.03561,-23.155071 -1.27226,-1.78116 -2.11547,-2.494629 -7.20449,-1.476824 z"
           id="path920"
           sodipodi:nodetypes="ccccc" />
        <path
           inkscape:connector-curvature="0"
           style="fill:#000000;fill-opacity:0.50196078;fill-rule:evenodd;stroke:none"
           d="m 107.92623,86.940574 c 0,0 6.51639,2.692628 7.80123,-2.446716 0.18341,-1.881145 -0.31115,-3.896295 -1.69594,-7.119385 0.68078,-3.452599 -3.65983,-7.65412 -6.11935,-7.940779 -9.422133,0 -27.824055,5.515076 -20.543318,11.510978 7.280738,5.995902 15.418038,5.139344 20.557378,5.995902 z"
           id="path923"
           sodipodi:nodetypes="cccccc" />
        <path
           inkscape:connector-curvature="0"
           style="fill:#000000;fill-opacity:1;fill-rule:evenodd;stroke:none"
           d="m 58.46875,99.78125 c 0,0 -0.128264,5.71429 2.84375,10.3125 1.486007,2.29911 3.781992,4.32379 7.21875,5.125 3.436758,0.80121 8.569843,0.78642 14.536897,-1.6004 L 82,111.6629 c -5.81061,2.32424 -8.88083,2.66204 -11.988706,1.9375 -3.107876,-0.72454 -5.716808,-1.9036 -7.068147,-3.99435 l -4.474397,-9.8248 z"
           id="path924"
           sodipodi:nodetypes="cccccccc" />
        <path
           inkscape:connector-curvature="0"
           style="fill:#000000;fill-opacity:1;fill-rule:evenodd;stroke:none"
           d="m 73.910227,100.22955 c -1.93024,-0.21236 -3.61204,0.11514 -5,0.625 -2.77592,1.01973 -4.375,2.84375 -4.375,2.84375 l 1.596591,0.15341 c 0,0 0.745416,-0.93338 3.215909,-1.84091 2.470493,-0.90753 7.115459,0.43038 11.467614,3.33182 l -0.599432,-3.27216 c -2.320848,-1.54723 -4.375442,-1.62855 -6.305682,-1.84091 z"
           id="path925"
           sodipodi:nodetypes="cccccccc" />
        <path
           inkscape:connector-curvature="0"
           style="fill:#a06a46;fill-opacity:1;fill-rule:evenodd;stroke:none"
           d="m 55.24795,108.35451 c -1.284836,8.56557 -2.501608,56.24063 12.916424,60.52342 9.714285,-10.89125 13.735562,-37.44692 20.489314,-50.67301 -2.343057,-1.85657 -2.056149,-1.69787 -5.92209,-4.34308 -14.864671,6.48933 -23.629139,-1.01041 -27.483648,-5.50733 z"
           id="path927"
           sodipodi:nodetypes="ccccc" />
        <path
           inkscape:connector-curvature="0"
           style="fill:#000000;fill-opacity:0.25098039;fill-rule:evenodd;stroke:none"
           d="m 75.686165,52.08774 c 0,0 4.47406,-7.139624 8.016023,-6.021109 12.490081,1.491353 28.335712,21.691913 28.522122,25.03586 0.18642,2.237029 -3.4151,-5.092879 -9.75335,-2.110174 C 100.97961,71.042928 101.412,50.223548 75.686165,52.08774 z"
           id="path929"
           sodipodi:nodetypes="ccccc" />
        <path
           inkscape:connector-curvature="0"
           style="fill:#000000;fill-opacity:1;fill-rule:evenodd;stroke:none"
           d="m 91.5,74.0625 c -0.814712,-0.06748 -1.86046,0.05761 -2.27481,0.867164 -0.442224,1.181002 1.227414,2.375413 1.769471,2.75446 3.060337,2.174423 7.977946,3.587841 8.917954,2.816634 0.539405,-1.302542 -2.435878,-3.26422 -3.552446,-4.214291 C 94.769289,74.859963 93.662863,74.389296 91.5,74.0625 z m 2.630538,1.958588 c 1.01192,0.666916 2.918266,2.076906 3.761647,2.945653 -1.848531,0.08182 -5.337242,-1.929087 -7.25976,-3.386661 -0.0221,-0.02895 2.415331,-0.301238 3.498113,0.441008 z"
           id="path930"
           sodipodi:nodetypes="cccccccccc" />
        <path
           inkscape:connector-curvature="0"
           style="fill:#000000;fill-opacity:1;fill-rule:evenodd;stroke:none"
           d="m 102.9375,81.1875 -1.75262,0.736338 c 0,0 0.41902,1.185207 1.20378,2.375 0.78476,1.189793 2.56141,2.063666 4.58009,2.169912 1.73091,0.0911 4.02159,0.527269 3.70378,0.411484 -0.63563,-0.231569 -1.26511,-0.718491 -3.07616,-0.813808 -1.52328,-0.64529 -3.06138,-1.878295 -3.72137,-2.878926 -0.65999,-1.000631 -0.9375,-2 -0.9375,-2 z"
           id="path931"
           sodipodi:nodetypes="cccccccc" />
        <path
           inkscape:connector-curvature="0"
           style="fill:#000000;fill-opacity:1;fill-rule:evenodd;stroke:none"
           d="m 50.8125,78.90625 c 0,0 -0.312342,5.88827 -0.125,12.375 0.09367,3.243365 0.120018,7.029148 0.581451,9.93085 0.461433,2.9017 2.303122,6.51337 3.511294,7.88629 l 0.537902,-1.24335 c -0.842438,-0.95731 -2.183286,-4.41683 -2.630647,-7.23004 -0.447361,-2.81321 -0.857051,-5.364406 -0.949799,-8.575804 -0.185496,-6.422797 0.125,-17.076427 0.125,-17.076427 L 50.8125,78.90625 z"
           id="path933"
           sodipodi:nodetypes="ccccccccc" />
        <path
           inkscape:connector-curvature="0"
           style="fill:#000000;fill-opacity:1;fill-rule:evenodd;stroke:none"
           d="m 50.680361,69.456695 c -1.578898,7.337231 -3.445285,19.235849 -7.490852,31.512055 -4.045567,12.27621 -8.230397,22.6235 -13.043305,28.52612 l -0.999102,3.27232 C 34.214408,126.55257 40.436335,113.67487 44.5,101.34375 48.563665,89.012629 51.784772,75.651935 53.006028,67.770092 l -2.325667,1.686603 z"
           id="path932"
           sodipodi:nodetypes="ccccccc" />
        <path
           inkscape:connector-curvature="0"
           style="fill:#a06a46;fill-opacity:1;fill-rule:evenodd;stroke:none"
           d="m 30.759156,128.706 c 0,0 -1.987182,-24.23062 12.926348,-35.975024 C 44.244761,92.358138 35.606053,78.932094 51.824517,68.865461 49.960326,82.660477 37.581638,122.36775 30.759156,128.706 z"
           id="path934"
           sodipodi:nodetypes="cccc" />
        <path
           inkscape:connector-curvature="0"
           style="fill:#000000;fill-opacity:1;fill-rule:evenodd;stroke:none"
           d="m 102.15625,85.875 c -10.056919,-0.842117 -19.322193,4.786381 -21.044435,10.713745 -1.716416,2.268226 -1.557909,5.108535 -1.674315,7.479405 7.111054,3.62205 14.314686,6.89118 22.22213,8.40582 3.56215,1.26029 4.7387,-2.22698 4.49753,-5.11951 0.47937,-6.73007 -0.01,-13.516576 0.1783,-20.228009 -0.89872,-1.284101 -2.78061,-1.111157 -4.17921,-1.251451 z m -0.0312,1.25 c 4.58849,-0.849366 2.46769,4.079626 2.93367,6.879155 -0.0174,5.489456 0.43632,11.070375 -0.6723,16.482335 -2.2082,1.96505 -6.278775,-0.35644 -8.999064,-1.0166 -5.030689,-0.94076 -10.994133,-3.65368 -14.006659,-6.7116 0.246993,-6.233689 4.27273,-11.524438 9.985126,-13.625995 C 94.767685,87.764061 98.457584,87.06668 102.125,87.125 z"
           id="path2181"
           sodipodi:nodetypes="cccccccccccccc" />
        <path
           inkscape:connector-curvature="0"
           style="fill:#000000;fill-opacity:1;fill-rule:evenodd;stroke:none"
           d="m 108.78125,86.65625 c -1.15943,0.290398 -2.66864,-0.144857 -3.49403,0.931827 -0.35969,0.992571 0.009,2.08173 -0.0194,3.114427 0.35659,5.940904 0.60821,11.911216 0.10596,17.851636 -0.55952,1.28753 -1.16756,3.0483 -0.0969,4.23839 1.38471,1.08383 3.60338,1.29196 5.21333,0.89579 1.50475,-0.40389 3.68699,-1.06165 4.49173,-2.52149 1.3788,-2.44053 0.95704,-5.61459 0.97642,-8.35179 -0.0102,-4.551122 -0.8724,-9.129643 -2.26158,-13.469473 -0.82309,-1.829462 -2.91316,-3.049884 -4.91549,-2.689317 z m 1.8125,1.375 c 1.98066,0.703125 2.47029,2.463809 2.76858,4.298689 1.0397,5.496328 1.95821,12.096391 0.28498,17.551541 -0.67381,1.74433 -2.78654,2.02274 -4.43695,2.37171 -1.06255,0.29528 -2.53706,0.25279 -3.16309,-0.80349 -0.3312,-1.29319 0.78047,-2.47335 0.68407,-3.80376 0.37108,-6.43172 0.0596,-12.879161 -0.35634,-19.30219 1.39352,-0.203904 2.80571,-0.557431 4.21875,-0.3125 z"
           id="path2804"
           sodipodi:nodetypes="cccccccccccccccccc" />
        <path
           inkscape:connector-curvature="0"
           style="fill:#000000;fill-opacity:1;fill-rule:evenodd;stroke:none"
           d="m 78.632656,103.4877 c 0.114564,4.08436 2.552967,8.63592 5.620403,11.53649 3.421126,3.27403 8.45452,4.00086 13.000141,3.6319 4.32705,-0.39033 8.66839,-1.4736 12.47213,-3.61453 1.15082,-0.39457 2.46403,-2.37362 0.64783,-2.78176 -0.98307,0.37469 -2.20584,0.38646 -3.29938,0.20219 -5.29027,-0.8119 -10.347124,-2.6606 -15.397798,-4.3717 -3.910082,-1.38864 -9.203801,-3.0282 -13.043326,-4.60259 z M 81.5,105.59375 c 7.300045,2.88514 11.785691,6.68679 21.91669,8.18833 1.88908,0.34112 4.27074,0.37559 6.17706,-0.21958 -2.58826,1.8191 -5.06868,2.67009 -8.11931,3.35271 -4.437123,0.85856 -9.978725,1.00982 -14.09062,-1.14546 -3.779864,-1.92919 -5.532326,-6.15193 -5.88382,-10.176 z"
           id="path2806"
           sodipodi:nodetypes="cccccccccccccc" />
        <path
           inkscape:connector-curvature="0"
           style="fill:#000000;fill-opacity:1;fill-rule:evenodd;stroke:none"
           d="m 107.33503,68.035202 c -6.70558,0.198387 -13.482617,2.671475 -19.405936,5.881959 -2.316036,1.131783 -5.401916,4.25311 -3.301666,6.647521 4.375573,4.657375 11.85349,5.899096 18.036122,6.300104 2.4441,0.0922 4.84582,0.470531 7.1907,1.137752 1.4129,0.32462 2.70245,0.01196 3.50299,0.814128 0.54671,-1.989946 2.25431,-3.626542 2.21884,-5.188298 0.17371,-2.994773 -1.4918,-5.385096 -1.51467,-8.344157 -0.80438,-3.026085 -3.58742,-6.645717 -6.72638,-7.249009 z m 1.20901,1.956396 c 2.80139,0.854126 4.30057,3.313877 4.5752,6.285623 0.009,2.509617 1.77366,4.632989 1.56712,7.225501 0.1853,2.71548 -2.32689,4.041036 -4.53195,3.321674 -3.97717,-1.337086 -8.97252,-1.535779 -13.020626,-2.55929 -3.871136,-0.794079 -7.697253,-1.898685 -10.520074,-4.71034 -1.706979,-1.689533 0.120756,-3.891167 1.756213,-4.737159 5.395995,-3.177733 10.862021,-4.751433 17.047627,-5.220923 0.38262,-0.01739 2.74348,0.396447 3.12649,0.394914 z"
           id="path2808"
           sodipodi:nodetypes="cccccccccccccccccc" />
        <path
           inkscape:connector-curvature="0"
           style="fill:#000000;fill-opacity:1;fill-rule:evenodd;stroke:none"
           d="m 78.045831,96.472976 c 0.18334,2.389983 -0.243383,5.179364 0.515111,7.459094 0.559785,0.75612 2.355215,0.19073 1.597905,-0.44092 -1.049305,-3.497913 -1.50826,-7.391325 -1.371473,-11.026183 0.09857,-1.872324 0.196398,-3.752933 0.685823,-5.904159 -1.38791,2.165777 -1.67464,6.12101 -1.427366,9.912168 z"
           id="path2823"
           sodipodi:nodetypes="cccccc" />
        <path
           inkscape:connector-curvature="0"
           style="fill:#000000;fill-opacity:1;fill-rule:evenodd;stroke:none"
           d="m 53.427454,66.395092 c -5.618765,3.133169 -11.31463,9.612954 -11.856269,16.324626 -0.377034,3.482483 -0.02899,6.426778 1.157611,9.663319 -8.408718,6.837599 -12.488761,18.694063 -12.255439,28.800133 -0.261222,3.00495 -0.275835,6.02906 -0.03586,9.03558 3.805536,-4.14535 6.361272,-9.50525 8.609178,-14.56042 5.424418,-13.68152 9.447442,-27.798359 12.753216,-42.15178 0.431652,-1.943762 1.360506,-5.139205 1.62756,-7.111458 z m -1.412278,2.535269 c -2.41733,12.743223 -6.377944,26.178496 -10.756463,38.360569 -2.469771,6.45727 -5.917646,13.7831 -9.604472,19.67179 -0.157499,-10.71866 2.212432,-23.04216 9.706025,-31.095754 1.363344,-1.695128 4.61812,-2.386176 2.628487,-4.966218 -1.968757,-5.066097 -1.680926,-11.168656 1.802749,-15.527084 1.444676,-1.942536 4.251231,-5.052189 6.223674,-6.443303 z"
           id="path2841"
           sodipodi:nodetypes="ccccccccccccccc" />
        <path
           inkscape:connector-curvature="0"
           style="fill:#000000;fill-opacity:1;fill-rule:evenodd;stroke:none"
           d="m 53.734824,107.15826 c -1.84774,15.12703 -0.538498,30.74405 2.592421,45.67754 1.465705,5.50149 6.164653,13.84711 11.320716,17.28584 1.974548,-3.24189 5.549579,-5.61694 7.026913,-9.63986 5.331437,-13.23767 8.079596,-30.04189 14.605394,-42.87091 -1.996787,-1.5 -5.348662,-3.04308 -7.185119,-5.3992 -8.234758,3.8264 -20.881006,2.68595 -26.745107,-4.43927 -0.516412,-0.55685 -1.135612,-0.0254 -1.615218,-0.61414 z m 1.552454,2.56652 c 5.992045,7.14335 17.642813,9.63822 27.032868,4.55995 1.90102,1.02108 2.891936,3.48341 5.311251,3.45654 -4.250685,7.31795 -7.073311,20.04925 -8.967573,28.18547 -1.570282,6.45676 -6.161693,17.9029 -11.032881,22.50543 -2.16466,-1.91679 -3.917953,-2.95408 -5.81149,-6.81974 -5.756967,-10.12661 -6.355401,-21.21143 -6.894929,-32.56479 -0.166873,-6.32436 -0.546652,-13.02346 0.362754,-19.32286 z"
           id="path2844"
           sodipodi:nodetypes="cccccccccccccccc" />
        <path
           inkscape:connector-curvature="0"
           style="fill:#000000;fill-opacity:1;fill-rule:evenodd;stroke:none"
           d="m 60.508016,65.394226 c -1.724696,-0.289222 -3.379674,1.390114 -3.220616,3.285641 0.261604,0.977422 -1.263569,0.392927 -1.119488,1.497046 -0.426925,1.703206 0.748067,3.080814 1.940261,4.157199 1.823652,1.622392 3.696488,2.287527 6.015795,1.207542 0.858022,-0.131018 1.834678,-0.660301 1.498599,-1.644487 -0.299102,-0.815742 -0.736003,-1.708358 0.369012,-1.890792 0.779526,-0.711764 0.718819,-2.037629 0.397352,-2.939697 -1.056197,-2.057102 -0.963804,-2.405081 -3.093318,-3.105258 -0.325147,-0.09378 -2.451768,-0.524618 -2.787597,-0.567194 z M 60.53125,66.375 c 2.075292,0.365547 4.045776,1.563941 5.237216,3.308615 0.597503,0.977441 2.23e-4,2.034867 -1.111288,2.184629 -0.591707,0.686514 0.09787,1.907994 0.236494,2.754208 -0.909971,0.06457 -1.787978,0.681034 -2.770096,0.468811 -1.998393,-0.215448 -3.872263,-1.474602 -4.859243,-3.220301 -0.551268,-0.845671 -0.397817,-2.11543 0.720819,-2.300941 0.823856,-0.761235 -0.281871,-2.075303 0.733024,-2.745955 0.548034,-0.34938 1.148207,-0.578507 1.813074,-0.449066 z"
           id="path3474"
           sodipodi:nodetypes="ccccccccccccccccccc" />
        <path
           inkscape:connector-curvature="0"
           style="fill:#ffffff;fill-opacity:0.78431373;fill-rule:evenodd;stroke:none"
           d="m 58.601565,67.945605 c 1.076905,-1.166647 4.307618,-0.44871 4.935813,1.525615 -2.871746,1.076904 -5.743492,0.538452 -4.935813,-1.525615 z"
           id="path4099"
           sodipodi:nodetypes="ccc" />
        <path
           inkscape:connector-curvature="0"
           style="fill:#000000;fill-opacity:1;fill-rule:evenodd;stroke:none"
           d="m 55.5,38.4375 c -6.485811,7.996087 -8.086184,19.977531 -2.541714,28.9375 -8.693127,5.278335 -12.407982,13.131614 -10.041713,25.31257 -6.152534,5.558014 -12.48067,15.79253 -12.513262,25.75647 -0.0039,6.23677 0.964145,13.83443 -4.903311,17.99346 0.94223,3.31259 9.556506,6.28423 12.690537,9.96974 7.650022,6.45876 16.183557,13.14888 19.653213,22.87401 1.503563,-3.67872 4.391456,-6.27038 6.959755,-1.82798 3.358248,2.50688 2.488538,1.73163 3.637127,1.01468 2.100447,-2.74758 6.72685,-10.89418 7.751308,-12.97684 3.589192,-8.6021 4.67132,-18.26198 8.609335,-26.71577 1.855419,-5.25139 3.892292,-12.89355 10.73218,-10.07941 8.204945,0.0788 17.012135,-2.14818 19.159625,-11.22162 0.45784,-5.97241 0.33827,-12.259964 -0.75429,-18.134432 4.10036,-6.597966 0.77169,-14.669686 -2.11574,-21.610245 -5.88373,-4.885792 -1.32716,-12.562777 -1.57784,-18.620906 -6.48102,2.80765 -8.13529,4.74713 -9.58896,6.009572 -7.863492,-9.738958 -22.229224,-11.93951 -33.983173,-9.286968 -6.26645,0.428903 -5.713588,6.926233 -8.477755,0.928758 C 56.772948,44.179539 55.773811,41.380749 55.5,38.4375 z m -0.878829,2.266892 c 0.498344,2.408853 4.061061,8.768614 5.717884,10.378987 1.02225,-0.737544 1.851951,-1.845929 3.928014,-3.204899 10.374655,-3.800763 22.826732,-1.803689 31.703043,4.721085 1.765951,1.667993 3.425295,2.361882 5.479978,4.033648 2.1816,-1.564553 3.9336,-4.943345 7.47129,-6.217222 1.1872,1.315557 -3.84257,12.111205 -1.39013,13.208052 4.29862,4.35045 5.33955,10.741483 7.10212,15.995609 3.11782,5.476444 -4.43292,8.804151 -0.47901,14.404087 0.23665,6.067041 3.12686,13.353071 -1.71686,18.382511 -6.08907,5.82092 -15.528792,6.83701 -23.46875,5.09375 -3.924012,5.01323 -5.246271,11.49622 -7.78125,17.21875 -2.472263,11.27204 -5.141579,25.2545 -13.479898,33.89643 -1.515138,-0.27776 -4.487144,-3.89577 -5.903667,-5.33668 -1.289609,-0.74287 -2.292878,-0.57777 -3.741435,3.284 -6.06765,-11.96463 -17.467767,-20.0773 -28.097967,-27.72723 -6.398356,-2.35978 3.734186,-7.67595 1.677031,-13.13081 -0.437477,-7.68373 -0.462578,-17.19618 4.480506,-23.45121 2.9073,-5.593032 9.500612,-7.852756 6.427856,-14.678411 -0.5787,-8.94984 4.194813,-16.592183 11.981324,-19.762339 -5.330855,-7.74764 -5.078599,-19.412972 0.08992,-27.108108 z"
           id="path4722"
           sodipodi:nodetypes="ccccccccccccccccccccccccccccccccccccccccc" />
      </g>
      <path
         inkscape:connector-curvature="0"
         style="fill:#000000;fill-opacity:1;fill-rule:evenodd;stroke:none"
         d="m 111.073,293.2485 c 0,17.63706 -0.81935,31.47314 4.27583,44.16724 5.07466,12.6429 10.32226,24.07725 24.33018,32.66261 6.46044,4.82836 13.38297,12.36487 13.61041,22.06709 0.22888,9.76979 -2.33467,20.90857 -5.90187,31.47247 -7.13431,21.12776 -18.70931,44.84493 -18.70931,44.84493 l 0.40155,0.16514 c 0,0 16.47879,-22.09138 23.78816,-43.73747 3.65466,-10.82305 6.28845,-22.36534 6.04239,-32.86096 -0.24597,-10.49563 -3.40451,-20.15608 -12.08478,-26.38134 l -0.1403,0 0,-0.11552 c -13.25945,-8.08746 -21.20905,-17.57845 -25.99633,-29.50544 -4.78733,-11.92699 -6.32343,-26.32083 -6.32343,-43.73748 l -3.29223,0.95873 z"
         id="path955"
         sodipodi:nodetypes="ccccccccccccccc" />
      <path
         inkscape:connector-curvature="0"
         style="fill:#000000;fill-opacity:1;fill-rule:evenodd;stroke:none"
         d="m 84.43426,338.57282 -2.30854,2.06618 c 2.58324,3.30887 5.53076,8.69266 12.00447,15.75279 6.47376,7.06013 13.97028,16.15478 20.51603,27.19129 13.09159,22.07305 24.11295,44.72382 13.12868,82.13588 l 1.40521,2.47944 c 11.31473,-38.53767 4.04012,-63.9107 -9.47515,-86.69806 -6.75758,-11.39366 -14.47013,-20.67904 -21.0781,-27.88553 -6.60794,-7.2065 -12.21465,-12.50853 -14.1926,-15.04199 z"
         id="path956"
         sodipodi:nodetypes="ccccccccc" />
      <path
         inkscape:connector-curvature="0"
         style="fill:#000000;fill-opacity:1;fill-rule:evenodd;stroke:none"
         d="m 193.29772,279.34704 -1.54577,-0.72731 c 0,0 -2.75497,4.60931 -4.73755,12.9758 -1.98254,8.36646 -5.57019,21.24073 -14.59406,36.92724 -18.90154,32.85715 -0.10027,78.9622 -0.10027,78.9622 l 0.82307,-0.19846 c 0,0 -13.83385,-46.70277 3.7539,-77.27613 9.22077,-16.02878 11.33788,-29.22556 13.40968,-37.96865 2.07183,-8.74305 2.99109,-12.69477 2.99109,-12.69477 z"
         id="path958"
         sodipodi:nodetypes="ccccccccc" />
      <path
         inkscape:connector-curvature="0"
         style="fill:#000000;fill-opacity:1;fill-rule:evenodd;stroke:none"
         d="m -28.32358,271.64424 c 6.59777,6.84878 14.35988,6.98652 21.53983,10.47978 l 3.6736,-4.4134 c -8.40445,-2.02213 -11.56951,-5.48236 -25.21343,-6.06638 z"
         id="path962"
         sodipodi:nodetypes="cccc" />
      <path
         inkscape:connector-curvature="0"
         style="fill:#000000;fill-opacity:1;fill-rule:evenodd;stroke:none"
         d="m -18.84847,246.23815 c 9.8766,6.07189 17.42457,7.35019 26.13685,11.02529 l 3.97473,-6.44657 c -10.03718,-1.52626 -15.41712,-4.01122 -30.11158,-4.57872 z"
         id="path963"
         sodipodi:nodetypes="cccc" />
      <path
         inkscape:connector-curvature="0"
         style="fill:#000000;fill-opacity:1;fill-rule:evenodd;stroke:none"
         d="m -4.37484,220.66677 c 5.85168,6.05985 17.60623,13.45633 22.59317,15.98579 -1.95672,-1.07173 3.28,-6.07811 1.12084,-7.0652 -5.1351,-2.56693 -13.28598,-7.38655 -23.71401,-8.92059 z"
         id="path964"
         sodipodi:nodetypes="cccc" />
      <path
         inkscape:connector-curvature="0"
         style="fill:#000000;fill-opacity:1;fill-rule:evenodd;stroke:none"
         d="m 5.76275,203.83959 c 5.23942,6.711 18.63908,13.13897 20.6766,13.91794 l -0.88328,-6.34737 c 0,0 -2.91078,-5.17378 -19.79332,-7.57057 z"
         id="path965"
         sodipodi:nodetypes="cccc" />
      <path
         inkscape:connector-curvature="0"
         style="fill:#000000;fill-opacity:1;fill-rule:evenodd;stroke:none"
         d="m 44.76726,160.89551 c -8.95317,1.91194 -9.75614,-0.49038 -26.85952,5.7358 9.19411,2.66676 17.22384,0.53996 25.83577,0.80996 l 1.02375,-6.54576 z"
         id="path966"
         sodipodi:nodetypes="cccc" />
      <path
         inkscape:connector-curvature="0"
         style="fill:#000000;fill-opacity:1;fill-rule:evenodd;stroke:none"
         d="m 20.75832,140.46484 c 2.32863,4.31425 25.90208,13.70652 26.31753,13.81883 0,0 0.96534,-5.35547 0.96354,-5.35562 -0.3332,-0.0907 -11.85814,-7.98508 -27.28107,-8.46321 z"
         id="path967"
         sodipodi:nodetypes="cccc" />
      <path
         inkscape:connector-curvature="0"
         style="fill:#000000;fill-opacity:1;fill-rule:evenodd;stroke:none"
         d="m 31.71893,122.89384 c 0,0 11.11373,13.17619 20.93759,16.23209 l 0.54203,-6.61185 c 0,0 -3.43275,-3.38858 -21.47962,-9.62024 z"
         id="path968"
         sodipodi:nodetypes="cccc" />
      <path
         inkscape:connector-curvature="0"
         style="fill:#000000;fill-opacity:1;fill-rule:evenodd;stroke:none"
         d="m 54.9,122.33533 c 2.4206,0.80566 5.39558,-4.87797 3.18844,-4.20328 -1.96584,0.97924 -11.61771,-5.32954 -12.97166,-6.38805 -0.9099,-0.54759 6.01681,10.21229 9.78322,10.59133 z"
         id="path969"
         sodipodi:nodetypes="cccc" />
    </g>
  </g>
</svg>
