<?xml version="1.0" encoding="UTF-8" standalone="no"?>
<!-- Created with Inkscape (http://www.inkscape.org/) -->

<svg
   xmlns:i="http://ns.adobe.com/AdobeIllustrator/10.0/"
   xmlns:dc="http://purl.org/dc/elements/1.1/"
   xmlns:cc="http://creativecommons.org/ns#"
   xmlns:rdf="http://www.w3.org/1999/02/22-rdf-syntax-ns#"
   xmlns:svg="http://www.w3.org/2000/svg"
   xmlns="http://www.w3.org/2000/svg"
   xmlns:sodipodi="http://sodipodi.sourceforge.net/DTD/sodipodi-0.dtd"
   xmlns:inkscape="http://www.inkscape.org/namespaces/inkscape"
   width="960"
   height="540"
   id="svg2"
   version="1.1"
   inkscape:version="0.48.4 r9939"
   sodipodi:docname="s1v5.svg">
  <defs
     id="defs4">
    <inkscape:perspective
       inkscape:persp3d-origin="522.85714 : 381.42857 : 1"
       inkscape:vp_z="1168.5714 : 561.42857 : 1"
       inkscape:vp_y="0 : 1000 : 0"
       inkscape:vp_x="172.85714 : 581.42857 : 1"
       id="perspective10"
       sodipodi:type="inkscape:persp3d" />
  </defs>
  <sodipodi:namedview
     id="base"
     pagecolor="#ffffff"
     bordercolor="#666666"
     borderopacity="1.0"
     inkscape:pageopacity="0.0"
     inkscape:pageshadow="2"
     inkscape:zoom="1"
     inkscape:cx="461.21207"
     inkscape:cy="184.63833"
     inkscape:document-units="px"
     inkscape:current-layer="Layer_1"
     showgrid="false"
     inkscape:window-width="1366"
     inkscape:window-height="706"
     inkscape:window-x="-8"
     inkscape:window-y="-8"
     inkscape:window-maximized="1"
     inkscape:snap-page="true"
     showguides="true"
     inkscape:guide-bbox="true" />
  <metadata
     id="metadata7">
    <rdf:RDF>
      <cc:Work
         rdf:about="">
        <dc:format>image/svg+xml</dc:format>
        <dc:type
           rdf:resource="http://purl.org/dc/dcmitype/StillImage" />
        <dc:title></dc:title>
      </cc:Work>
    </rdf:RDF>
  </metadata>
  <g
     inkscape:label="Layer 1"
     inkscape:groupmode="layer"
     id="layer1"
     transform="translate(0,-512.36218)"
     style="display:inline">
    <g
       i:dimmedPercent="50"
       i:layer="yes"
       i:rgbTrio="#4F008000FFFF"
       id="Layer_1"
       transform="translate(49.64699,702.71204)">
      <g
         id="g3921"
         transform="matrix(0.95298213,0,0,0.99613487,1074.7853,-285.30136)">
        <path
           inkscape:connector-curvature="0"
           style="fill:#c8beb7;fill-opacity:1;stroke:none"
           d="m -1182.4738,281.62151 114.5914,68.24881 268.15129,-17.0622 223.66341,-119.60335 135.1729,130.97815 152.98142,39.8118 124.54441,-56.874 0,100.58976 -1019.10483,0 z"
           id="path6360"
           sodipodi:nodetypes="cccccccccc" />
        <path
           inkscape:connector-curvature="0"
           sodipodi:nodetypes="cccccccc"
           id="rect6357"
           d="m -1182.4738,301.62151 234.87027,54.03031 359.99312,-88.15471 257.61992,96.68581 166.62152,-17.0622 0,100.58976 -1019.10483,0 0,-146.08897 z"
           style="fill:#ac9d93;fill-opacity:1;stroke:none" />
        <rect
           y="421.05695"
           x="-1182.4739"
           height="214.33777"
           width="1019.1049"
           id="rect6333"
           style="fill:#808000;fill-opacity:1;stroke:none" />
        <path
           inkscape:connector-curvature="0"
           sodipodi:nodetypes="ccccc"
           id="rect6330"
           d="m -684.4551,458.39631 44.78501,2.09955 470.24252,157.46547 -230.64275,-8.39816 -284.38478,-151.16686 z"
           style="fill:#b3b3b3;fill-opacity:1;stroke:none" />
        <path
           inkscape:connector-curvature="0"
           sodipodi:nodetypes="ccccc"
           id="rect6362"
           d="m -1182.4738,421.05691 333.77314,0 284.37001,200.11927 -618.14315,14.2185 0,-214.33777 z"
           style="fill:#6b6d00;fill-opacity:1;stroke:none" />
        <path
           inkscape:connector-curvature="0"
           sodipodi:nodetypes="cccc"
           id="rect7334"
           d="m -599.51531,421.05691 436.14634,0 1.7835,131.87047 -437.92984,-131.87047 z"
           style="fill:#6b6d00;fill-opacity:1;stroke:none" />
      </g>
      <g
         transform="matrix(0.88833256,0,0,0.87923951,-32.93304,-196.90504)"
         id="g3377">
        <path
           inkscape:connector-curvature="0"
           id="path2278"
           d="m 910.6953,185.5719 c -68.89871,10.53232 -78.25767,46.22355 -62.19516,86.62809 -53.66201,7.48508 -100.39547,31.27181 -100.42674,66.23494 0.004,0.52215 0.0618,1.05384 0.14581,1.57564 -43.3883,-15.84553 -89.00088,-31.67925 -135.20682,-46.60161 -27.24144,-40.79456 -59.79673,-78.51638 -79.11724,-81.42684 -2.25811,-0.32547 -5.08684,-0.62712 -8.3982,-0.87144 -24.30001,-1.79289 -74.0899,-0.85656 -107.80244,10.40405 -22.79669,-11.04832 -58.4955,-22.48532 -93.93029,-28.19837 -7.75983,-1.10037 -15.10993,-1.87246 -22.04736,-2.3738 -1.46946,-0.10618 -2.93368,-0.20875 -4.36536,-0.29017 -44.38214,-2.52414 -70.51542,6.68297 -73.50863,16.53587 -51.37907,-2.19928 -93.4873,3.24641 -121.1295,19.13308 10.05983,17.50374 74.57386,46.10895 101.14436,54.4221 -2.98922,0.87233 -5.59532,1.7521 -7.88198,2.6706 -2.78353,-0.0617 -5.60329,0.50165 -8.32907,1.85791 -11.60726,5.77538 -3.30142,21.31254 1.60471,31.92673 3.68537,8.78344 9.11141,16.04645 16.59968,16.48104 61.79502,30.2272 138.01137,53.95514 219.00116,74.15753 31.59866,82.21333 190.23536,206.1749 224.90121,228.04398 37.40086,25.10541 45.91551,-97.40021 30.35733,-173.52487 55.3679,11.04577 108.32122,21.86494 155.71915,33.43311 6.76568,1.3063 13.46848,-1.02624 19.67811,-5.80135 0.42122,0.21968 0.81666,0.42565 1.24112,0.64624 36.58267,7.99889 60.19752,-65.864 28.98765,-86.48655 -1.14389,-4.44343 -2.98928,-8.28549 -5.61056,-11.24063 10.5524,-2.56374 25.26685,-11.784 39.55132,-23.96073 21.07501,20.86079 41.37581,37.43369 53.46093,45.23922 67.72211,-19.8156 -13.02687,-212.23504 -62.44319,-228.61377 z"
           style="fill:#ffff00;fill-opacity:1;fill-rule:evenodd;stroke:none;stroke-width:15;stroke-linecap:round;stroke-linejoin:round;stroke-miterlimit:4;stroke-opacity:1;stroke-dasharray:none" />
        <path
           inkscape:connector-curvature="0"
           id="path2222"
           d="m 412.117,299.27269 c 46.81398,41.45829 198.78766,90.84208 239.38756,99.15253 C 692.8499,409.59107 578.34325,218.66478 533.89493,211.96907 497.76519,206.7616 313.33534,209.46656 412.117,299.27269 z"
           style="fill:#1b4800;fill-opacity:1;fill-rule:evenodd;stroke:none;stroke-width:4;stroke-linecap:round;stroke-linejoin:round;stroke-miterlimit:4;stroke-opacity:1;stroke-dasharray:none" />
        <path
           inkscape:connector-curvature="0"
           id="path2224"
           d="m 872.93067,387.89143 c 34.64151,13.52605 -0.16398,115.02845 -37.10109,107.89676 -189.5917,-46.2727 -467.88892,-80.67155 -635.32647,-164.75332 5.64618,-14.58915 -46.25418,-35.80941 3.34243,-50.28291 -26.5705,-8.31315 -91.07389,-36.91812 -101.13373,-54.42185 122.52611,-70.41885 528.84521,64.14731 770.21886,161.56132 z"
           style="fill:#ff0000;fill-opacity:1;fill-rule:evenodd;stroke:none;stroke-width:4;stroke-linecap:round;stroke-linejoin:round;stroke-miterlimit:4;stroke-opacity:1;stroke-dasharray:none" />
        <path
           inkscape:connector-curvature="0"
           id="path2226"
           d="m 323.76113,193.32456 c 59.22318,9.54839 119.25644,35.05036 118.38989,48.08668 -1.67393,11.11208 -53.25939,13.29474 -112.48256,3.74636 -60.21623,-8.67912 -108.70142,-24.99597 -106.03443,-36.97731 1.73583,-12.04325 38.04854,-23.65864 100.1271,-14.85573 z"
           style="fill:#9951ff;fill-opacity:1;fill-rule:evenodd;stroke:none;stroke-width:4;stroke-linecap:round;stroke-linejoin:round;stroke-miterlimit:4;stroke-opacity:1;stroke-dasharray:none" />
        <path
           inkscape:connector-curvature="0"
           id="path2228"
           d="m 213.53942,331.90143 c 9.06135,-9.68574 7.01062,-21.04542 3.09756,-32.52888 -3.91307,-11.48347 -17.38537,-19.86124 -28.99262,-14.08584 -11.60725,5.77539 -3.28596,21.293 1.62016,31.90719 4.84423,11.54537 12.66765,20.48291 24.2749,14.70753 z"
           style="fill:#333333;fill-opacity:1;fill-rule:evenodd;stroke:none;stroke-width:4;stroke-linecap:round;stroke-linejoin:round;stroke-miterlimit:4;stroke-opacity:1;stroke-dasharray:none" />
        <path
           inkscape:connector-curvature="0"
           id="path2230"
           d="m 427.89574,357.37358 c 26.37668,-30.98146 182.32535,28.95464 225.84523,49.61782 44.32724,22.58741 47.04307,263.13473 -3.99073,228.87817 -43.08662,-27.18134 -277.7108,-212.06295 -221.8545,-278.49599 z"
           style="fill:#013200;fill-opacity:1;fill-rule:evenodd;stroke:none;stroke-width:4;stroke-linecap:round;stroke-linejoin:round;stroke-miterlimit:4;stroke-opacity:1;stroke-dasharray:none" />
        <path
           inkscape:connector-curvature="0"
           id="path2232"
           d="m 748.08455,338.4403 c 0.19112,25.26525 95.79433,50.32582 124.47474,55.03811 29.6116,4.77419 134.50201,-95.8106 75.89783,-114.67064 -75.98683,-24.69189 -200.32153,2.58389 -200.37257,59.63253 z"
           style="fill:#00422e;fill-opacity:1;fill-rule:evenodd;stroke:none;stroke-width:4;stroke-linecap:round;stroke-linejoin:round;stroke-miterlimit:4;stroke-opacity:1;stroke-dasharray:none" />
        <path
           inkscape:connector-curvature="0"
           id="path2234"
           d="m 910.69637,185.57563 c 49.41635,16.37873 130.15353,208.80141 62.43145,228.61701 C 924.70181,382.91527 744.39738,210.99722 910.69637,185.57563 z"
           style="fill:#ff0000;fill-opacity:1;fill-rule:evenodd;stroke:none;stroke-width:4;stroke-linecap:round;stroke-linejoin:round;stroke-miterlimit:4;stroke-opacity:1;stroke-dasharray:none" />
        <path
           inkscape:connector-curvature="0"
           id="path2236"
           d="m 884.97663,403.65662 c 32.34591,19.92042 8.64706,95.03801 -28.22814,86.97515 -189.85013,-98.66552 -54.71013,-105.58218 28.22814,-86.97515 z"
           style="fill:#666666;fill-opacity:1;fill-rule:evenodd;stroke:none;stroke-width:4;stroke-linecap:round;stroke-linejoin:round;stroke-miterlimit:4;stroke-opacity:1;stroke-dasharray:none" />
        <path
           inkscape:connector-curvature="0"
           style="fill:#fffeff;fill-opacity:1;fill-rule:evenodd;stroke:none"
           d="m 281.17386,196.64649 c 18.93678,0.71336 38.70157,6.94702 38.89823,11.52526 -0.12597,3.94372 -16.24306,6.97896 -35.17983,6.26558 -19.21733,-0.36684 -35.02623,-3.91099 -34.61973,-8.20124 0.11193,-4.27072 11.09487,-9.91743 30.90133,-9.5896 z"
           id="path3329" />
      </g>
    </g>
  </g>
</svg>
